<svg preserveAspectRatio="none" width="100%" height="100%" overflow="visible" style="display: block;" viewBox="0 0 16 16" fill="none" xmlns="http://www.w3.org/2000/svg">
<g id="angle-small-down 1">
<path id="Vector" d="M12.4733 5.47333C12.4114 5.41085 12.3376 5.36125 12.2564 5.32741C12.1751 5.29356 12.088 5.27613 12 5.27613C11.912 5.27613 11.8249 5.29356 11.7436 5.32741C11.6624 5.36125 11.5886 5.41085 11.5267 5.47333L8.47333 8.52667C8.41136 8.58915 8.33762 8.63875 8.25638 8.67259C8.17515 8.70644 8.08801 8.72387 8 8.72387C7.91199 8.72387 7.82486 8.70644 7.74362 8.67259C7.66238 8.63875 7.58864 8.58915 7.52667 8.52667L4.47333 5.47333C4.41136 5.41085 4.33762 5.36125 4.25638 5.32741C4.17514 5.29356 4.08801 5.27613 4 5.27613C3.91199 5.27613 3.82485 5.29356 3.74362 5.32741C3.66238 5.36125 3.58864 5.41085 3.52667 5.47333C3.4025 5.59824 3.3328 5.76721 3.3328 5.94333C3.3328 6.11946 3.4025 6.28842 3.52667 6.41333L6.58667 9.47333C6.96167 9.84787 7.47 10.0582 8 10.0582C8.53 10.0582 9.03833 9.84787 9.41333 9.47333L12.4733 6.41333C12.5975 6.28842 12.6672 6.11946 12.6672 5.94333C12.6672 5.76721 12.5975 5.59824 12.4733 5.47333Z" fill="var(--fill-0, white)"/>
</g>
</svg>
