<svg preserveAspectRatio="none" width="100%" height="100%" overflow="visible" style="display: block;" viewBox="0 0 36 36" fill="none" xmlns="http://www.w3.org/2000/svg">
<g id="arrow-right 1" clip-path="url(#clip0_0_16)">
<path id="Vector" d="M34.68 14.865L28.875 9C28.7356 8.85941 28.5697 8.74782 28.3869 8.67166C28.2041 8.59551 28.008 8.5563 27.81 8.5563C27.612 8.5563 27.4159 8.59551 27.2331 8.67166C27.0503 8.74782 26.8844 8.85941 26.745 9C26.4656 9.28104 26.3088 9.66122 26.3088 10.0575C26.3088 10.4538 26.4656 10.834 26.745 11.115L32.085 16.5H1.5C1.10217 16.5 0.720644 16.658 0.439339 16.9393C0.158035 17.2206 -5.36442e-07 17.6022 -5.36442e-07 18C-5.36442e-07 18.3978 0.158035 18.7794 0.439339 19.0607C0.720644 19.342 1.10217 19.5 1.5 19.5H32.175L26.745 24.915C26.6044 25.0544 26.4928 25.2203 26.4167 25.4031C26.3405 25.5859 26.3013 25.782 26.3013 25.98C26.3013 26.178 26.3405 26.3741 26.4167 26.5569C26.4928 26.7397 26.6044 26.9056 26.745 27.045C26.8844 27.1856 27.0503 27.2972 27.2331 27.3733C27.4159 27.4495 27.612 27.4887 27.81 27.4887C28.008 27.4887 28.2041 27.4495 28.3869 27.3733C28.5697 27.2972 28.7356 27.1856 28.875 27.045L34.68 21.225C35.5227 20.3812 35.996 19.2375 35.996 18.045C35.996 16.8525 35.5227 15.7088 34.68 14.865Z" fill="var(--fill-0, #0E1011)"/>
</g>
<defs>
<clipPath id="clip0_0_16">
<rect width="36" height="36" fill="white"/>
</clipPath>
</defs>
</svg>
