<svg preserveAspectRatio="none" width="100%" height="100%" overflow="visible" style="display: block;" viewBox="0 0 16 16" fill="none" xmlns="http://www.w3.org/2000/svg">
<g id="arrow-right 1" clip-path="url(#clip0_0_18)">
<path id="Vector" d="M15.4133 6.60667L12.8333 4C12.7714 3.93751 12.6976 3.88792 12.6164 3.85407C12.5351 3.82023 12.448 3.8028 12.36 3.8028C12.272 3.8028 12.1849 3.82023 12.1036 3.85407C12.0224 3.88792 11.9486 3.93751 11.8867 4C11.7625 4.12491 11.6928 4.29388 11.6928 4.47C11.6928 4.64612 11.7625 4.81509 11.8867 4.94L14.26 7.33333H0.666666C0.489855 7.33333 0.320286 7.40357 0.195262 7.5286C0.0702377 7.65362 -2.38419e-07 7.82319 -2.38419e-07 8C-2.38419e-07 8.17681 0.0702377 8.34638 0.195262 8.4714C0.320286 8.59643 0.489855 8.66667 0.666666 8.66667H14.3L11.8867 11.0733C11.8242 11.1353 11.7746 11.209 11.7407 11.2903C11.7069 11.3715 11.6895 11.4587 11.6895 11.5467C11.6895 11.6347 11.7069 11.7218 11.7407 11.8031C11.7746 11.8843 11.8242 11.958 11.8867 12.02C11.9486 12.0825 12.0224 12.1321 12.1036 12.1659C12.1849 12.1998 12.272 12.2172 12.36 12.2172C12.448 12.2172 12.5351 12.1998 12.6164 12.1659C12.6976 12.1321 12.7714 12.0825 12.8333 12.02L15.4133 9.43333C15.7879 9.05833 15.9982 8.55 15.9982 8.02C15.9982 7.49 15.7879 6.98167 15.4133 6.60667Z" fill="var(--fill-0, #0E1011)"/>
</g>
<defs>
<clipPath id="clip0_0_18">
<rect width="16" height="16" fill="white"/>
</clipPath>
</defs>
</svg>
