<svg preserveAspectRatio="none" width="100%" height="100%" overflow="visible" style="display: block;" viewBox="0 0 170 8" fill="none" xmlns="http://www.w3.org/2000/svg">
<g id="Group">
<path id="Vector" d="M0 7.94595V0H1.36196V3.40541H3.91564L6.35582 0H7.94478L5.05061 3.94595L7.94478 8H6.35582L3.97239 4.64865H1.41871V8H0.0567476L0 7.94595Z" fill="var(--fill-0, white)"/>
<path id="Vector_2" d="M28.0674 7.94595V0H32.437C34.3097 0 35.5014 0.864866 35.5014 2.32433C35.5014 3.78378 34.5935 4.43243 33.0045 4.54054V4.64865C33.6287 4.81081 33.9692 5.18919 34.253 5.67567L35.6717 8H34.1395L32.7775 5.78379C32.3803 5.13514 32.0398 4.86486 30.9616 4.86486H29.4293V7.94595H28.0674ZM29.4293 3.89189H32.437C33.572 3.89189 34.1395 3.51352 34.1395 2.54054C34.1395 1.56757 33.572 1.18919 32.437 1.18919H29.4293V3.94595V3.89189Z" fill="var(--fill-0, white)"/>
<path id="Vector_3" d="M56 8V0H63V1.14286H57.4237V3.37415H62.822V4.51701H57.4237V6.80272H63V7.94558H56V8Z" fill="var(--fill-0, white)"/>
<path id="Vector_4" d="M83 8L86.6 0H88.4L92 8H90.5273L89.6 5.93197H85.3454L84.4182 8H83ZM85.8364 4.73469H89.0545L87.9636 2.28572L87.4727 1.14286H87.3636L86.8727 2.28572L85.7818 4.73469H85.8364Z" fill="var(--fill-0, white)"/>
<path id="Vector_5" d="M114.338 8V1.14286H111V0H119V1.14286H115.662V8H114.281H114.338Z" fill="var(--fill-0, white)"/>
<path id="Vector_6" d="M140 8V0H141.4V8H140Z" fill="var(--fill-0, white)"/>
<path id="Vector_7" d="M164.544 8L161 0H162.575L165.444 6.69388H165.556L168.425 0H170L166.456 8H164.544Z" fill="var(--fill-0, white)"/>
</g>
</svg>
