<svg preserveAspectRatio="none" width="100%" height="100%" overflow="visible" style="display: block;" viewBox="0 0 170 36" fill="none" xmlns="http://www.w3.org/2000/svg">
<g id="Group">
<path id="Vector" d="M6.73025 35.4426H0L11.1848 6.50323C12.5889 2.55484 14.8646 0.0464516 19.7065 0.0464516C24.5485 0.0464516 27.7441 3.06581 27.7441 7.61807V28.1497C27.7441 29.3574 28.4704 30.1006 29.584 30.1006C30.6977 30.1006 31.2787 29.5432 31.6176 28.6606L40.3815 6.45677C41.7856 2.50839 44.0613 0 48.9032 0C53.7451 0 56.9408 3.01935 56.9408 7.57161V35.3497H50.5495V7.94323C50.5495 6.68903 49.7748 5.94581 48.7096 5.94581C47.6443 5.94581 47.0633 6.54968 46.7244 7.43226L37.9605 29.5897C36.5564 33.5381 34.2323 36 29.3904 36C24.5485 36 21.4012 32.9806 21.4012 28.3819V7.94323C21.4012 6.68903 20.5781 5.94581 19.5129 5.94581C18.4477 5.94581 17.915 6.54968 17.5277 7.43226L6.73025 35.4426Z" fill="var(--fill-0, white)"/>
<path id="Vector_2" d="M94.4172 0.697059V6.78222H76.3569C72.5802 6.78222 70.8855 8.50093 70.8855 11.1487C70.8855 13.7964 72.7739 15.2829 76.4053 15.2829H94.1751V20.7642H76.26C72.6286 20.7642 70.7403 22.1577 70.7403 24.9913C70.7403 27.8248 72.4833 29.3577 76.2116 29.3577H94.514V35.4429H76.2116C67.6414 35.4429 64.1553 31.3551 64.1553 25.9667C64.1553 20.5783 66.0436 19.3242 69.3361 17.9771C65.9468 16.63 64.2521 13.9822 64.2521 10.1732C64.2521 4.599 67.8351 0.697059 76.3569 0.697059H94.4172Z" fill="var(--fill-0, white)"/>
<path id="Vector_3" d="M132.086 0.697059V6.78222H118.626V35.4429H112.283V6.78222H98.8223V0.697059H132.086Z" fill="var(--fill-0, white)"/>
<path id="Vector_4" d="M136.978 35.4426H130.006L142.692 4.55228C144.047 1.30067 146.468 0.0929252 150.293 0.0929252C154.119 0.0929252 156.491 1.34712 157.798 4.55228L170 35.4426H162.979L152.037 7.47873C151.698 6.6426 151.117 6.31744 150.293 6.31744C149.47 6.31744 148.841 6.68905 148.454 7.47873L137.027 35.4426H136.978Z" fill="var(--fill-0, white)"/>
</g>
</svg>
