<svg preserveAspectRatio="none" width="100%" height="100%" overflow="visible" style="display: block;" viewBox="0 0 30 30" fill="none" xmlns="http://www.w3.org/2000/svg">
<path id="Vector" d="M30 11.5553V18.2661C30 24.4507 25.1162 29.4987 18.9778 29.8064C18.6542 29.8213 18.3804 29.5582 18.3853 29.2356L18.46 24.6294C18.465 24.3018 18.689 24.0189 19.0126 23.9246C22.1142 23.0113 24.3744 20.1572 24.3744 16.777V13.0493C24.3744 8.92952 21.0139 5.59398 16.8719 5.59398H15.458L15.6621 8.63666C15.921 11.0738 18.1265 12.955 20.5758 13.1287C20.7849 13.1436 20.9442 13.3124 20.9442 13.5159C20.9442 13.7194 20.7849 13.8931 20.5758 13.908C17.9522 14.0917 16.0355 16.2161 15.9111 18.8865L15.3883 29.6277C15.3784 29.8312 15.2041 30 15 30C14.7959 30 14.6167 29.8362 14.6117 29.6277L14.089 18.8865C13.9645 16.2161 12.0478 14.0917 9.42417 13.908C9.21508 13.8931 9.05576 13.7244 9.05576 13.5159C9.05576 13.3074 9.21508 13.1387 9.42417 13.1287C11.8736 12.955 14.079 11.0738 14.3379 8.63666L14.542 5.59398H13.1281C8.98606 5.59398 5.62563 8.92952 5.62563 13.0493V16.777C5.62563 20.1572 7.89081 23.0113 10.9874 23.9246C11.306 24.0189 11.53 24.3018 11.54 24.6294L11.6147 29.2356C11.6147 29.5582 11.3458 29.8213 11.0222 29.8064C4.87886 29.4937 0 24.4457 0 18.2661V11.5553C0 5.17207 5.20744 0 11.6246 0H18.3754C24.7975 0 30 5.17207 30 11.5553Z" fill="var(--fill-0, #FE0000)"/>
</svg>
