<svg width="15" height="13" viewBox="0 0 15 13" fill="none" xmlns="http://www.w3.org/2000/svg">
<g clip-path="url(#clip0_443_1103)">
<path d="M14.2787 7.33953L1.30567 12.9126C1.18702 12.9668 1.05866 12.9964 0.928272 12.9997C0.676799 12.9997 0.452412 12.9023 0.260604 12.7094C-0.0102705 12.38 -0.0683499 12.0316 0.0863657 11.6644L2.2325 7.36845L9.25692 6.49762L2.2325 5.6268L0.0845355 1.33088C-0.0704241 0.944092 -0.0123447 0.595738 0.258774 0.285819C0.54917 -0.00433376 0.898134 -0.0720524 1.30567 0.0826632L14.3076 5.65572C14.6561 5.82996 14.8303 6.10095 14.8303 6.46871C14.8108 6.87502 14.6269 7.16529 14.2787 7.33953Z" fill="#DFE4E8"/>
</g>
<defs>
<clipPath id="clip0_443_1103">
<rect width="14.83" height="13.0017" fill="white"/>
</clipPath>
</defs>
</svg>
