<svg preserveAspectRatio="none" width="100%" height="100%" overflow="visible" style="display: block;" viewBox="0 0 50 50" fill="none" xmlns="http://www.w3.org/2000/svg">
<g id="Group">
<g id="Mask group">
<mask id="mask0_1423_225" style="mask-type:luminance" maskUnits="userSpaceOnUse" x="0" y="0" width="50" height="50">
<g id="Group_2">
<path id="Vector" d="M50 0H0V50H50V0Z" fill="var(--fill-0, white)"/>
<path id="Vector_2" d="M13.5413 35.4167C14.1166 35.4167 14.5611 35.9111 14.8373 36.4157C15.1911 37.0619 15.8777 37.5 16.6663 37.5H33.333C34.1215 37.5 34.8082 37.0619 35.162 36.4157C35.4382 35.9111 35.8828 35.4167 36.458 35.4167H44.7913C46.5172 35.4167 47.9163 36.8159 47.9163 38.5417V39.5834C47.9163 41.8846 46.0509 43.75 43.7497 43.75H6.24967C3.94849 43.75 2.08301 41.8846 2.08301 39.5834V38.5417C2.08301 36.8159 3.48211 35.4167 5.20801 35.4167H13.5413ZM43.7497 2.08337C46.0509 2.08337 47.9163 3.94885 47.9163 6.25004V25C47.9163 27.3013 46.0509 29.1667 43.7497 29.1667H33.333C31.0318 29.1667 29.1663 27.3013 29.1663 25V6.25004C29.1663 3.94885 31.0318 2.08337 33.333 2.08337H43.7497ZM36.458 20.8334C35.3074 20.8334 34.3747 21.7661 34.3747 22.9167C34.3747 24.0673 35.3074 25 36.458 25H40.6247C41.7753 25 42.708 24.0673 42.708 22.9167C42.708 21.7661 41.7753 20.8334 40.6247 20.8334H36.458Z" fill="var(--fill-0, black)"/>
</g>
</mask>
<g mask="url(#mask0_1423_225)">
<path id="Vector_3" d="M18.437 10.4166C19.1456 10.4278 19.8006 10.7993 20.1745 11.4013C20.5665 12.0489 21.2055 12.488 21.9812 12.5H30.9207C31.1251 12.5 31.3141 12.3924 31.4193 12.2172C31.7226 11.7114 32.4991 11.9267 32.4995 12.5162V18.2332C32.4995 20.0699 32.5012 20.9889 32.6928 21.7448C32.7414 21.9366 32.8001 22.1241 32.8657 22.3083C33.1555 20.5845 34.6526 19.2708 36.4587 19.2708H40.6253C42.6389 19.2708 44.2712 20.9031 44.2712 22.9166C44.2712 24.637 43.0787 26.0752 41.4757 26.4587H45.8337V36.2508C45.8337 37.417 45.8328 38.0004 45.6057 38.446C45.4062 38.8377 45.088 39.1558 44.6964 39.3554C44.2507 39.5825 43.6674 39.5833 42.5012 39.5833H7.49951C6.33328 39.5833 5.74983 39.5825 5.30428 39.3554C4.91268 39.1558 4.59453 38.8377 4.39487 38.446C4.16785 38.0004 4.16699 37.417 4.16699 36.2508V20.4162C4.16699 16.9162 4.16737 15.1654 4.84855 13.8285C5.44766 12.653 6.40339 11.6973 7.57887 11.0982C8.91576 10.417 10.6665 10.4166 14.1666 10.4166H18.437Z" fill="url(#paint0_linear_1423_225)"/>
</g>
</g>
<g id="Clip path group">
<mask id="mask1_1423_225" style="mask-type:luminance" maskUnits="userSpaceOnUse" x="2" y="2" width="46" height="42">
<g id="3d6x7k563m-1752500502793-9813140_laptop-mobile_clipPath_0nrvh35va">
<path id="Vector_4" d="M13.5413 35.4167C14.1166 35.4167 14.5611 35.9111 14.8373 36.4157C15.1911 37.0619 15.8777 37.5 16.6663 37.5H33.333C34.1215 37.5 34.8082 37.0619 35.162 36.4157C35.4382 35.9111 35.8828 35.4167 36.458 35.4167H44.7913C46.5172 35.4167 47.9163 36.8159 47.9163 38.5417V39.5834C47.9163 41.8846 46.0509 43.75 43.7497 43.75H6.24967C3.94849 43.75 2.08301 41.8846 2.08301 39.5834V38.5417C2.08301 36.8159 3.48211 35.4167 5.20801 35.4167H13.5413ZM43.7497 2.08337C46.0509 2.08337 47.9163 3.94885 47.9163 6.25004V25C47.9163 27.3013 46.0509 29.1667 43.7497 29.1667H33.333C31.0318 29.1667 29.1663 27.3013 29.1663 25V6.25004C29.1663 3.94885 31.0318 2.08337 33.333 2.08337H43.7497ZM36.458 20.8334C35.3074 20.8334 34.3747 21.7661 34.3747 22.9167C34.3747 24.0673 35.3074 25 36.458 25H40.6247C41.7753 25 42.708 24.0673 42.708 22.9167C42.708 21.7661 41.7753 20.8334 40.6247 20.8334H36.458Z" fill="var(--fill-0, white)"/>
</g>
</mask>
<g mask="url(#mask1_1423_225)">
<g id="Vector_5" filter="url(#filter0_f_1423_225)">
<path d="M18.436 10.4167C19.1446 10.4279 19.7996 10.7994 20.1735 11.4015C20.5656 12.0491 21.2046 12.4881 21.9802 12.5001H30.9198C31.1241 12.5001 31.3131 12.3925 31.4183 12.2173C31.7216 11.7115 32.4981 11.9268 32.4985 12.5164V18.2333C32.4985 20.07 32.5002 20.989 32.6919 21.7449C32.7404 21.9367 32.7991 22.1242 32.8648 22.3084C33.1546 20.5846 34.6516 19.2709 36.4577 19.2709H40.6244C42.6379 19.2709 44.2702 20.9032 44.2702 22.9167C44.2702 24.6372 43.0777 26.0753 41.4748 26.4588H45.8327V36.2509C45.8327 37.4172 45.8319 38.0005 45.6048 38.4461C45.4052 38.8378 45.0871 39.1559 44.6954 39.3555C44.2498 39.5826 43.6664 39.5834 42.5002 39.5834H7.49854C6.33231 39.5834 5.74885 39.5826 5.30331 39.3555C4.9117 39.1559 4.59356 38.8378 4.39389 38.4461C4.16687 38.0005 4.16602 37.4172 4.16602 36.2509V20.4163C4.16602 16.9163 4.16639 15.1655 4.84758 13.8286C5.44668 12.6531 6.40241 11.6974 7.57789 11.0983C8.91479 10.4171 10.6656 10.4167 14.1656 10.4167H18.436Z" fill="url(#paint1_linear_1423_225)"/>
</g>
</g>
</g>
<path id="Vector_6" d="M13.5413 35.4167C14.1166 35.4167 14.5611 35.9111 14.8373 36.4157C15.1911 37.0619 15.8777 37.5 16.6663 37.5H33.333C34.1215 37.5 34.8082 37.0619 35.162 36.4157C35.4382 35.9111 35.8828 35.4167 36.458 35.4167H44.7913C46.5172 35.4167 47.9163 36.8159 47.9163 38.5417V39.5834C47.9163 41.8846 46.0509 43.75 43.7497 43.75H6.24967C3.94849 43.75 2.08301 41.8846 2.08301 39.5834V38.5417C2.08301 36.8159 3.48211 35.4167 5.20801 35.4167H13.5413ZM43.7497 2.08337C46.0509 2.08337 47.9163 3.94885 47.9163 6.25004V25C47.9163 27.3013 46.0509 29.1667 43.7497 29.1667H33.333C31.0318 29.1667 29.1663 27.3013 29.1663 25V6.25004C29.1663 3.94885 31.0318 2.08337 33.333 2.08337H43.7497ZM36.458 20.8334C35.3074 20.8334 34.3747 21.7661 34.3747 22.9167C34.3747 24.0673 35.3074 25 36.458 25H40.6247C41.7753 25 42.708 24.0673 42.708 22.9167C42.708 21.7661 41.7753 20.8334 40.6247 20.8334H36.458Z" fill="url(#paint2_linear_1423_225)"/>
<path id="Vector_7" d="M43.7497 42.1875V43.75H6.24967V42.1875H43.7497ZM46.3538 39.5833V38.5416C46.3538 37.6787 45.6543 36.9791 44.7913 36.9791H36.6553C36.6513 36.9841 36.6455 36.9897 36.6411 36.9954C36.6059 37.0416 36.5676 37.0998 36.5313 37.1662C35.9143 38.2927 34.7149 39.0625 33.333 39.0625H16.6663C15.2844 39.0625 14.0851 38.2927 13.4681 37.1662C13.4317 37.0998 13.3934 37.0416 13.3582 36.9954C13.3539 36.9897 13.348 36.9841 13.344 36.9791H5.20801C4.34507 36.9791 3.64551 37.6787 3.64551 38.5416V39.5833C3.64551 41.0216 4.81142 42.1875 6.24967 42.1875V43.75L5.82447 43.7277C3.72305 43.5145 2.08301 41.741 2.08301 39.5833V38.5416C2.08301 36.8158 3.48211 35.4166 5.20801 35.4166H13.5413C14.1166 35.4166 14.5611 35.911 14.8373 36.4156C15.1911 37.0618 15.8777 37.5 16.6663 37.5H33.333C34.023 37.5 34.6345 37.1643 35.0134 36.6475L35.162 36.4156C35.4382 35.911 35.8828 35.4166 36.458 35.4166H44.7913C46.5172 35.4166 47.9163 36.8158 47.9163 38.5416V39.5833C47.9163 41.8845 46.0509 43.75 43.7497 43.75V42.1875C45.188 42.1875 46.3538 41.0216 46.3538 39.5833Z" fill="url(#paint3_linear_1423_225)"/>
<path id="Vector_8" d="M43.7503 27.6042V29.1667H33.3337V27.6042H43.7503ZM46.3545 25V6.25004C46.3545 4.81179 45.1887 3.64587 43.7503 3.64587H33.3337C31.8953 3.64587 30.7295 4.81179 30.7295 6.25004V25C30.7295 26.4384 31.8953 27.6042 33.3337 27.6042V29.1667C31.0324 29.1667 29.167 27.3013 29.167 25V6.25004C29.167 3.94885 31.0324 2.08337 33.3337 2.08337H43.7503L44.1755 2.10575C46.277 2.31881 47.917 4.09244 47.917 6.25004V25L47.8947 25.4253C47.6957 27.3869 46.1372 28.9455 44.1755 29.1444L43.7503 29.1667V27.6042C45.0987 27.6042 46.2068 26.5796 46.3403 25.2665L46.3545 25Z" fill="url(#paint4_linear_1423_225)"/>
</g>
<defs>
<filter id="filter0_f_1423_225" x="0.166016" y="6.41675" width="49.6667" height="37.1667" filterUnits="userSpaceOnUse" color-interpolation-filters="sRGB">
<feFlood flood-opacity="0" result="BackgroundImageFix"/>
<feBlend mode="normal" in="SourceGraphic" in2="BackgroundImageFix" result="shape"/>
<feGaussianBlur stdDeviation="2" result="effect1_foregroundBlur_1423_225"/>
</filter>
<linearGradient id="paint0_linear_1423_225" x1="25.0003" y1="10.4166" x2="25.0003" y2="39.5833" gradientUnits="userSpaceOnUse">
<stop stop-color="#FE0000"/>
<stop offset="1" stop-color="#360606"/>
</linearGradient>
<linearGradient id="paint1_linear_1423_225" x1="24.9993" y1="10.4167" x2="24.9993" y2="39.5834" gradientUnits="userSpaceOnUse">
<stop stop-color="#FE0000"/>
<stop offset="1" stop-color="#800000"/>
</linearGradient>
<linearGradient id="paint2_linear_1423_225" x1="24.9997" y1="2.08337" x2="24.9997" y2="43.75" gradientUnits="userSpaceOnUse">
<stop stop-color="white" stop-opacity="0.6"/>
<stop offset="1" stop-color="white" stop-opacity="0.6"/>
</linearGradient>
<linearGradient id="paint3_linear_1423_225" x1="24.9997" y1="35.4166" x2="24.9997" y2="40.2416" gradientUnits="userSpaceOnUse">
<stop stop-color="white"/>
<stop offset="1" stop-color="white" stop-opacity="0"/>
</linearGradient>
<linearGradient id="paint4_linear_1423_225" x1="38.542" y1="2.08337" x2="38.542" y2="17.7667" gradientUnits="userSpaceOnUse">
<stop stop-color="white"/>
<stop offset="1" stop-color="white" stop-opacity="0"/>
</linearGradient>
</defs>
</svg>
