<svg preserveAspectRatio="none" width="100%" height="100%" overflow="visible" style="display: block;" viewBox="0 0 30 30" fill="none" xmlns="http://www.w3.org/2000/svg">
<g id="arrow-right 1" clip-path="url(#clip0_1423_222)">
<path id="Vector" d="M24.4039 2.07858L16.5838 2.01278C16.3962 2.01139 16.2103 2.04718 16.037 2.11807C15.8638 2.18895 15.7065 2.29354 15.5742 2.4258C15.4419 2.55805 15.3374 2.71536 15.2665 2.88864C15.1956 3.06192 15.1598 3.24774 15.1612 3.4354C15.1635 3.81093 15.3144 4.17125 15.5808 4.43766C15.8472 4.70408 16.2075 4.85493 16.5831 4.85727L23.7699 4.91095L3.34226 25.3386C3.07655 25.6043 2.92797 25.9653 2.92921 26.3423C2.93044 26.7193 3.08138 27.0814 3.34883 27.3488C3.61629 27.6163 3.97833 27.7672 4.35533 27.7685C4.73233 27.7697 5.0934 27.6211 5.3591 27.3554L25.8468 6.86769L25.8606 14.1348C25.8604 14.3224 25.8974 14.5085 25.9694 14.6822C26.0415 14.856 26.1471 15.014 26.2802 15.1471C26.4133 15.2802 26.5713 15.3858 26.7451 15.4579C26.9188 15.5299 27.1049 15.5669 27.2925 15.5667C27.4802 15.5681 27.666 15.5323 27.8393 15.4615C28.0126 15.3906 28.1699 15.286 28.3021 15.1537C28.4344 15.0215 28.539 14.8642 28.6099 14.6909C28.6807 14.5176 28.7165 14.3318 28.7151 14.1441L28.6796 6.35429C28.6752 5.22421 28.2224 4.13916 27.4207 3.33746C26.619 2.53576 25.534 2.08298 24.4039 2.07858Z" fill="var(--fill-0, #0E1011)"/>
</g>
<defs>
<clipPath id="clip0_1423_222">
<rect width="30" height="30" fill="white"/>
</clipPath>
</defs>
</svg>
