<svg preserveAspectRatio="none" width="100%" height="100%" overflow="visible" style="display: block;" viewBox="0 0 79.7758 3.26628" fill="none" xmlns="http://www.w3.org/2000/svg">
<g id="Group">
<path id="Vector" d="M0.67948 1.63314C0.67948 1.05886 1.11318 0.609713 1.66661 0.609713C2.12094 0.609713 2.44349 0.858284 2.56036 1.29428L3.22953 1.13771C3.06339 0.454284 2.44349 0 1.66661 0C0.732187 0 0 0.717144 0 1.63314C0 2.54857 0.732187 3.26628 1.66661 3.26628C2.47844 3.26628 3.07427 2.816 3.23469 2.08686L2.56495 1.95486C2.44063 2.40457 2.11635 2.66114 1.66661 2.66114C1.11318 2.66114 0.67948 2.20972 0.67948 1.63314Z" fill="var(--fill-0, #979EA3)"/>
<path id="Vector_2" d="M8.1288 2.04337C8.63354 1.93137 8.9349 1.56794 8.9349 1.07194C8.9349 0.474223 8.48917 0.0725098 7.8263 0.0725098H6.24219V3.19365H6.92167V2.08108H7.2425L8.22276 3.19365H9.02599L8.02854 2.06565L8.1288 2.04337ZM6.92224 1.53365V0.63365H7.73979C8.05776 0.63365 8.27089 0.813651 8.27089 1.08108C8.27089 1.35136 8.05719 1.53365 7.73979 1.53365H6.92224Z" fill="var(--fill-0, #979EA3)"/>
<path id="Vector_3" d="M12.6404 1.89659H14.2171V1.36917H12.6404V0.638306H14.358V0.0720215H11.9609V3.19374H14.3723V2.62745H12.6404V1.89659Z" fill="var(--fill-0, #979EA3)"/>
<path id="Vector_4" d="M18.475 0.0720215L17.167 3.19316H17.8929L18.1209 2.60288H19.5721L19.8001 3.19316H20.5214L19.214 0.0720215H18.475ZM18.3461 2.03716L18.8468 0.745163L19.3532 2.03716H18.3461Z" fill="var(--fill-0, #979EA3)"/>
<path id="Vector_5" d="M23.9085 3.19374H24.5828V0.648019H25.6353V0.0720215H22.8555V0.648019H23.9085V3.19374Z" fill="var(--fill-0, #979EA3)"/>
<path id="Vector_6" d="M29.239 0.0720215H28.5596V3.19316H29.239V0.0720215Z" fill="var(--fill-0, #979EA3)"/>
<path id="Vector_7" d="M29.239 3.19365H28.5596V0.0725098H29.239V3.19365Z" fill="var(--fill-0, #979EA3)"/>
<path id="Vector_8" d="M32.8825 0.0719999H32.132L33.4629 3.19371H34.1539L35.4853 0.0719999H34.7348L33.8061 2.31943L32.8825 0.0719999Z" fill="var(--fill-0, #979EA3)"/>
<path id="Vector_9" d="M39.0559 1.89659H40.6325V1.36917H39.0559V0.638306H40.7735V0.0720215H38.377V3.19374H40.7884V2.62745H39.0559V1.89659Z" fill="var(--fill-0, #979EA3)"/>
<path id="Vector_10" d="M48.4408 0.0720215L47.1328 3.19316H47.8587L48.0867 2.60288H49.5379L49.7659 3.19316H50.4872L49.1798 0.0720215H48.4408ZM48.3125 2.03716L48.8126 0.745163L49.3191 2.03716H48.3125Z" fill="var(--fill-0, #979EA3)"/>
<path id="Vector_11" d="M54.7332 1.40286V1.95943H55.7518L55.7249 2.03943C55.5931 2.42914 55.2505 2.66114 54.8088 2.66114C54.229 2.66114 53.7925 2.21943 53.7925 1.63314C53.7925 1.04972 54.2193 0.609713 54.7848 0.609713C55.1789 0.609713 55.4562 0.758285 55.6298 1.06343L56.291 0.872573C56.0658 0.332573 55.4952 0 54.7848 0C53.8452 0 53.1084 0.717144 53.1084 1.63314C53.1084 2.54857 53.8509 3.26628 54.7991 3.26628C55.7392 3.26628 56.4221 2.58171 56.4221 1.63771C56.4221 1.56286 56.4181 1.48514 56.4095 1.40343H54.7332V1.40286Z" fill="var(--fill-0, #979EA3)"/>
<path id="Vector_12" d="M60.0974 1.89659H61.6741V1.36917H60.0974V0.638306H61.8151V0.0720215H59.418V3.19374H61.8294V2.62745H60.0974V1.89659Z" fill="var(--fill-0, #979EA3)"/>
<path id="Vector_13" d="M64.875 0.0720215V3.19374H65.5545V1.21545L67.287 3.19374H67.8587V0.0720215H67.1844V2.11202L65.4508 0.0720215H64.875Z" fill="var(--fill-0, #979EA3)"/>
<path id="Vector_14" d="M71.5398 1.63314C71.5398 1.05886 71.9735 0.609713 72.527 0.609713C72.9807 0.609713 73.3038 0.858284 73.4207 1.29428L74.0899 1.13771C73.9243 0.454284 73.3038 0 72.527 0C71.5925 0 70.8604 0.717144 70.8604 1.63314C70.8604 2.54857 71.5925 3.26628 72.527 3.26628C73.3388 3.26628 73.934 2.816 74.095 2.08686L73.4253 1.95486C73.301 2.40457 72.9767 2.66114 72.527 2.66114C71.9735 2.66114 71.5398 2.20972 71.5398 1.63314Z" fill="var(--fill-0, #979EA3)"/>
<path id="Vector_15" d="M79.0241 0.0719999L78.1974 1.55885L77.3615 0.0719999H76.627L77.841 2.23143V3.19371H78.5348V2.22171L78.5429 2.20743L79.7758 0.0719999H79.0241Z" fill="var(--fill-0, #979EA3)"/>
</g>
</svg>
