<svg preserveAspectRatio="none" width="100%" height="100%" overflow="visible" style="display: block;" viewBox="0 0 98.8415 21.3349" fill="none" xmlns="http://www.w3.org/2000/svg">
<g id="Group">
<path id="Vector" d="M11.1461 14.716L15.4241 15.6446C14.6965 19.0989 11.6119 21.3337 7.97385 21.3337C3.6088 21.3337 0 18.228 0 13.6126C0 9.02629 3.6088 5.892 7.97385 5.892C11.5242 5.892 14.6088 8.06857 15.4241 11.4937L11.059 12.5389C10.6517 10.7686 9.45828 9.95543 7.97443 9.95543C5.87927 9.95543 4.4825 11.4937 4.4825 13.6126C4.4825 15.7606 5.87927 17.2703 7.97443 17.2703C9.45828 17.2703 10.6511 16.4869 11.1461 14.716Z" fill="var(--fill-0, #979EA3)"/>
<path id="Vector_2" d="M18.0342 20.8989V0H22.6903V20.8989H18.0342Z" fill="var(--fill-0, #979EA3)"/>
<path id="Vector_3" d="M26.25 20.8988V6.32739H30.9061V20.8983H26.25V20.8988Z" fill="var(--fill-0, #979EA3)"/>
<path id="Vector_4" d="M44.8949 14.716L49.1729 15.6446C48.4453 19.0989 45.3607 21.3337 41.7227 21.3337C37.3576 21.3337 33.7488 18.228 33.7488 13.6126C33.7488 9.02629 37.357 5.892 41.7227 5.892C45.273 5.892 48.3582 8.06857 49.1729 11.4937L44.8078 12.5389C44.4005 10.7686 43.2071 9.95543 41.7232 9.95543C39.6281 9.95543 38.2313 11.4937 38.2313 13.6126C38.2313 15.7606 39.6281 17.2703 41.7232 17.2703C43.2071 17.2703 44.3999 16.4869 44.8949 14.716Z" fill="var(--fill-0, #979EA3)"/>
<path id="Vector_5" d="M62.026 20.8989L57.2822 15.6451H56.4383V20.8989H51.7822V0H56.4383V11.2909H57.0783L61.7051 6.32743H67.322L60.9197 13.2646L67.9918 20.8983H62.026V20.8989Z" fill="var(--fill-0, #979EA3)"/>
<path id="Vector_6" d="M81.8088 11.5521C81.4645 11.5521 80.9483 12.0452 80.8743 12.3395C80.8004 12.6338 80.5197 11.9109 81.2284 11.5789C81.7904 11.3155 80.6114 10.8441 80.2035 11.1075C79.4759 11.5784 79.2507 11.1395 79.1035 11.6047C78.9562 12.0698 78.4733 11.9224 78.1536 11.9224C77.8339 11.9224 77.874 13.1367 78.6119 13.5047C79.4879 13.9412 77.6007 16.8018 76.9149 15.6772C76.2767 14.6304 76.2068 11.2967 76.1403 9.47095H75.8854H75.6304C75.564 11.2967 75.4941 14.6309 74.8559 15.6772C74.1701 16.8018 72.2829 13.9412 73.1589 13.5047C73.8968 13.1372 73.9369 11.9224 73.6172 11.9224C73.2975 11.9224 72.8146 12.0698 72.6673 11.6047C72.5201 11.1395 72.2949 11.5784 71.5673 11.1075C71.16 10.8435 69.9809 11.3155 70.5424 11.5789C71.2511 11.9109 70.9703 12.6338 70.8964 12.3395C70.8225 12.0452 70.3063 11.5521 69.962 11.5521C69.9546 11.5521 68.4707 11.5504 68.4707 11.5504V13.7995C68.4707 17.8841 71.7902 21.1949 75.8854 21.1949C79.9806 21.1949 83.3001 17.8841 83.3001 13.7995V11.5504C83.3001 11.5504 81.8162 11.5521 81.8088 11.5521Z" fill="var(--fill-0, #979EA3)"/>
<path id="Vector_7" d="M75.0177 1.82171L72.993 5.31886C72.6074 5.98514 73.0893 6.81771 73.8604 6.81771H74.6889C74.8739 6.81771 75.0469 6.90971 75.1506 7.06286L75.8851 8.14971L76.6196 7.06286C76.7233 6.90971 76.8957 6.81771 77.0814 6.81771H77.9098C78.6809 6.81771 79.1628 5.98514 78.7772 5.31886L76.7525 1.82171C76.3669 1.156 75.4033 1.156 75.0177 1.82171Z" fill="var(--fill-0, #979EA3)"/>
<path id="Vector_8" d="M89.8777 16.1674C90.0816 17.4154 91.216 17.88 92.4678 17.88C93.6899 17.88 94.3596 17.3577 94.3596 16.7189C94.3596 16.2251 93.9809 15.848 92.9044 15.6452L89.9361 15.0646C87.2297 14.5709 85.6874 13.12 85.6874 10.8269C85.6874 7.83715 88.2775 5.89258 91.9734 5.89258C95.6109 5.89258 98.0268 7.54686 98.6084 10.0726L94.3596 10.9143C94.2141 10.0143 93.341 9.20172 91.915 9.20172C90.6637 9.20172 90.2564 9.81144 90.2564 10.3337C90.2564 10.74 90.4311 11.1463 91.3621 11.3497L94.7962 12.0463C97.5611 12.6269 98.8415 14.2812 98.8415 16.4292C98.8415 19.6509 96.0474 21.3349 92.206 21.3349C88.772 21.3349 85.8329 20.0869 85.3379 17.0971L89.8777 16.1674Z" fill="var(--fill-0, #979EA3)"/>
</g>
</svg>
