<svg preserveAspectRatio="none" width="100%" height="100%" overflow="visible" style="display: block;" viewBox="0 0 124.335 32.0592" fill="none" xmlns="http://www.w3.org/2000/svg">
<g id="Group">
<g id="Group_2">
<path id="Vector" d="M55.2452 5.5944C55.3631 5.7048 55.4522 5.8344 55.5124 5.9832C55.5726 6.132 55.6015 6.2784 55.6015 6.4272C55.6015 6.5736 55.5702 6.7224 55.5124 6.8712C55.4522 7.02 55.3656 7.1496 55.2452 7.26C54.9996 7.5024 54.7083 7.6248 54.3665 7.6248C54.0559 7.6248 53.7815 7.5144 53.5432 7.2936C53.0544 6.8136 52.5152 6.4536 51.9254 6.2184C51.3356 5.9808 50.7265 5.8632 50.0957 5.8632C49.4506 5.8632 48.8391 5.988 48.2589 6.2352C47.6811 6.4848 47.1732 6.8232 46.735 7.2552C46.2969 7.6872 45.9502 8.196 45.695 8.7792C45.4398 9.3648 45.3098 9.996 45.3098 10.6776C45.3098 11.3208 45.4302 11.9304 45.6709 12.5064C45.9117 13.0824 46.2463 13.5912 46.6724 14.0304C47.0985 14.4696 47.6017 14.8224 48.1794 15.084C48.7572 15.3456 49.3832 15.4776 50.0596 15.4776C50.6663 15.4776 51.2344 15.4008 51.7617 15.2448C52.2889 15.0888 52.7896 14.8128 53.2639 14.412V12.8472H51.5835C51.4198 12.8472 51.2657 12.8136 51.1165 12.7464C50.9672 12.6792 50.842 12.5904 50.7385 12.48C50.635 12.3696 50.5507 12.24 50.4882 12.0912C50.4256 11.9448 50.3943 11.7888 50.3943 11.6256C50.3943 11.4648 50.4256 11.3088 50.4882 11.1648C50.5507 11.0208 50.635 10.896 50.7385 10.788C50.842 10.68 50.9672 10.596 51.1165 10.5336C51.2657 10.4712 51.4198 10.4376 51.5835 10.4376H54.4652C54.6361 10.4376 54.795 10.4688 54.9443 10.5336C55.0935 10.596 55.2211 10.68 55.3343 10.7832C55.445 10.8864 55.5317 11.0112 55.5967 11.1552C55.6593 11.2992 55.6906 11.4552 55.6906 11.6256V14.9424C55.6906 15.1344 55.652 15.3 55.5798 15.4416C55.5052 15.5808 55.4089 15.7152 55.2909 15.84C54.4676 16.572 53.6154 17.0976 52.7319 17.4144C51.8483 17.7336 50.9359 17.8872 49.9946 17.88C49.3567 17.88 48.7404 17.7936 48.1433 17.6208C47.5463 17.4456 46.9854 17.2056 46.4581 16.8936C45.9309 16.584 45.4494 16.2096 45.0113 15.7728C44.5732 15.336 44.2 14.8512 43.8894 14.3208C43.5765 13.788 43.3357 13.2144 43.16 12.6024C42.9867 11.988 42.9 11.3496 42.9 10.6824C42.9 9.6984 43.083 8.7696 43.4513 7.8936C43.8196 7.0176 44.3252 6.252 44.9704 5.592C45.6156 4.9344 46.3739 4.4136 47.2454 4.0272C48.1169 3.6432 49.0557 3.4512 50.0669 3.4512C51.0756 3.4512 52.012 3.6312 52.8763 3.9888C53.7333 4.3512 54.5254 4.8864 55.2452 5.5944Z" fill="var(--fill-0, #979EA3)"/>
<path id="Vector_2" d="M64.7665 3.4536C65.768 3.4536 66.7093 3.6432 67.5928 4.02C68.4763 4.3968 69.2443 4.9128 69.9015 5.568C70.5587 6.2232 71.0763 6.9864 71.4543 7.8648C71.8322 8.7408 72.0224 9.6768 72.0224 10.6752C72.0224 11.34 71.9333 11.9808 71.76 12.5928C71.5843 13.2072 71.3435 13.7784 71.0306 14.3112C70.72 14.844 70.342 15.3288 69.8967 15.7704C69.4513 16.212 68.9626 16.5888 68.4281 16.9008C67.8937 17.2152 67.3183 17.4576 66.6972 17.628C66.0785 17.7984 65.4357 17.8824 64.7665 17.8824C63.765 17.8824 62.8261 17.6952 61.9474 17.316C61.0687 16.9392 60.3056 16.4232 59.6556 15.768C59.008 15.1128 58.4952 14.3496 58.1196 13.4784C57.7441 12.6072 57.5587 11.6712 57.5587 10.6728C57.5587 10.008 57.643 9.3672 57.8139 8.7528C57.9848 8.1384 58.2256 7.5648 58.5361 7.0272C58.8467 6.492 59.2222 6.0024 59.6604 5.5632C60.0985 5.124 60.5824 4.7472 61.1169 4.4376C61.6513 4.128 62.2243 3.8856 62.8406 3.7104C63.4569 3.5424 64.0996 3.4536 64.7665 3.4536ZM64.7785 5.8608C64.1117 5.8608 63.4857 5.9856 62.9031 6.2376C62.3206 6.4896 61.8126 6.8328 61.3793 7.2696C60.9459 7.7064 60.6017 8.2152 60.3513 8.8008C60.0985 9.3864 59.9733 10.0104 59.9733 10.6752C59.9733 11.3472 60.0985 11.976 60.3513 12.5616C60.6041 13.1448 60.9459 13.6536 61.3793 14.0856C61.8126 14.5176 62.3206 14.8584 62.9031 15.1056C63.4857 15.3528 64.1093 15.4776 64.7785 15.4776C65.4454 15.4776 66.0737 15.3528 66.6635 15.1056C67.2533 14.8584 67.7637 14.5176 68.1994 14.0856C68.6328 13.6536 68.977 13.1448 69.2298 12.5616C69.4802 11.9784 69.6078 11.3496 69.6078 10.6752C69.6078 10.0104 69.4802 9.3864 69.2298 8.8008C68.977 8.2176 68.6352 7.7064 68.1994 7.2696C67.7661 6.8328 67.2533 6.4896 66.6635 6.2376C66.0737 5.988 65.4454 5.8608 64.7785 5.8608Z" fill="var(--fill-0, #979EA3)"/>
<path id="Vector_3" d="M76.517 15.3456L82.692 15.3576C82.863 15.3576 83.0194 15.3888 83.1639 15.4512C83.3083 15.5136 83.4359 15.6 83.5419 15.7104C83.6502 15.8208 83.7344 15.948 83.797 16.0944C83.8596 16.2384 83.8909 16.3944 83.8909 16.5648C83.8909 16.9128 83.7754 17.196 83.5467 17.4192C83.318 17.6424 83.0315 17.7528 82.6896 17.7528H75.3013H75.1737C75.1328 17.7528 75.0943 17.7456 75.0557 17.7312C75.0269 17.7312 74.9956 17.724 74.9667 17.7096C74.7139 17.6424 74.5069 17.5056 74.3432 17.2992C74.1795 17.0928 74.0976 16.848 74.0976 16.5672V4.74C74.0976 4.5696 74.1289 4.4136 74.1939 4.2696C74.2565 4.1256 74.3407 4.0008 74.4491 3.8976C74.5574 3.7944 74.685 3.7104 74.8319 3.648C74.9811 3.5856 75.1352 3.5544 75.2989 3.5544C75.4698 3.5544 75.6263 3.5856 75.7707 3.648C75.9152 3.7104 76.0428 3.7944 76.1559 3.8976C76.2667 4.0008 76.3533 4.1256 76.4183 4.2696C76.4809 4.4136 76.5122 4.572 76.5122 4.74V15.3456H76.517Z" fill="var(--fill-0, #979EA3)"/>
<path id="Vector_4" d="M86.84 17.7528C86.6763 17.7528 86.5198 17.7216 86.373 17.6592C86.2261 17.5968 86.0961 17.5128 85.9902 17.4096C85.8818 17.3064 85.7976 17.1816 85.735 17.0328C85.6724 16.884 85.6411 16.7304 85.6411 16.5672V4.74C85.6411 4.5696 85.6724 4.4136 85.735 4.2696C85.7976 4.1256 85.8843 3.9984 85.9902 3.8928C86.0985 3.7848 86.2261 3.7032 86.373 3.6432C86.5222 3.5832 86.6763 3.5544 86.84 3.5544H90.7448C91.3972 3.5544 92.0304 3.6384 92.6419 3.8088C93.2533 3.9792 93.8263 4.2192 94.3607 4.5312C94.8952 4.8408 95.3839 5.2152 95.8293 5.652C96.2746 6.0888 96.6574 6.5688 96.9752 7.0944C97.2954 7.62 97.5409 8.1864 97.7143 8.7912C97.8876 9.396 97.9743 10.0248 97.9743 10.6776C97.9743 11.652 97.7817 12.5712 97.3965 13.428C97.0113 14.2848 96.4889 15.036 95.8269 15.6792C95.1672 16.3224 94.3993 16.8288 93.523 17.1984C92.6467 17.568 91.7222 17.7528 90.7424 17.7528H86.8496H86.84ZM88.0533 5.9616V15.3456H90.8002C91.4598 15.3456 92.0785 15.2184 92.6539 14.964C93.2293 14.7096 93.7324 14.3688 94.1657 13.944C94.5991 13.5192 94.9409 13.0248 95.1889 12.4632C95.4369 11.9016 95.562 11.3136 95.562 10.6992C95.562 10.0776 95.4369 9.4824 95.1889 8.9136C94.9409 8.3448 94.5991 7.8408 94.1657 7.404C93.7324 6.9672 93.2269 6.6192 92.6539 6.3552C92.0785 6.0936 91.4622 5.9616 90.8002 5.9616H88.0533Z" fill="var(--fill-0, #979EA3)"/>
<path id="Vector_5" d="M100.969 17.7528C100.651 17.724 100.384 17.5992 100.172 17.3808C99.9604 17.1624 99.8544 16.8864 99.8544 16.5552V4.764C99.8544 4.5936 99.8857 4.4352 99.9483 4.2864C100.011 4.1376 100.098 4.0104 100.204 3.9024C100.312 3.7944 100.439 3.7104 100.586 3.648C100.736 3.5856 100.894 3.552 101.065 3.552H108.853C109.024 3.552 109.181 3.5832 109.325 3.648C109.47 3.7104 109.595 3.7968 109.698 3.9024C109.804 4.0104 109.886 4.1376 109.949 4.2864C110.011 4.4352 110.043 4.5936 110.043 4.764C110.043 4.9272 110.011 5.0808 109.949 5.2296C109.886 5.3784 109.802 5.5056 109.698 5.6112C109.595 5.7192 109.47 5.8032 109.325 5.8656C109.181 5.928 109.024 5.9592 108.853 5.9592H102.267V9.264H107.419C107.589 9.264 107.746 9.2952 107.89 9.3576C108.035 9.42 108.162 9.5064 108.268 9.6192C108.377 9.7296 108.461 9.8592 108.524 10.008C108.586 10.1568 108.617 10.3152 108.617 10.4856C108.617 10.6488 108.586 10.8024 108.524 10.9464C108.461 11.0904 108.374 11.2176 108.268 11.3232C108.16 11.4312 108.035 11.5128 107.89 11.5728C107.746 11.6328 107.589 11.6616 107.419 11.6616H102.267V15.3432H108.853C109.024 15.3432 109.181 15.3744 109.325 15.4368C109.47 15.4992 109.595 15.5856 109.698 15.696C109.804 15.8064 109.886 15.936 109.949 16.0848C110.011 16.2336 110.043 16.392 110.043 16.5624C110.043 16.9104 109.929 17.1936 109.703 17.4168C109.477 17.6376 109.193 17.7504 108.853 17.7504H100.969V17.7528Z" fill="var(--fill-0, #979EA3)"/>
<path id="Vector_6" d="M114.477 7.98007V16.5649C114.477 16.7281 114.445 16.8817 114.383 17.0305C114.32 17.1793 114.234 17.3041 114.12 17.4073C114.01 17.5105 113.882 17.5945 113.735 17.6569C113.591 17.7193 113.432 17.7505 113.263 17.7505C113.1 17.7505 112.946 17.7193 112.796 17.6569C112.647 17.5945 112.519 17.5105 112.411 17.4073C112.303 17.3041 112.219 17.1793 112.156 17.0305C112.093 16.8841 112.06 16.7281 112.06 16.5649V4.77367C112.06 4.45687 112.163 4.18567 112.37 3.96487C112.467 3.84007 112.589 3.73927 112.739 3.66487C112.885 3.59047 113.061 3.55447 113.261 3.55447C113.439 3.55447 113.612 3.59287 113.779 3.66967C113.945 3.74647 114.092 3.86167 114.219 4.00807L121.918 13.2241V4.74247C121.918 4.57207 121.952 4.41607 122.019 4.27207C122.087 4.12807 122.173 4.00327 122.286 3.90007C122.397 3.79687 122.527 3.71287 122.676 3.65047C122.826 3.58807 122.984 3.55687 123.155 3.55687C123.326 3.55687 123.48 3.58807 123.622 3.65047C123.762 3.71287 123.887 3.79687 123.996 3.90007C124.104 4.00327 124.186 4.12807 124.246 4.27207C124.306 4.41607 124.335 4.57447 124.335 4.74247V16.5673C124.335 16.7593 124.294 16.9369 124.212 17.1001C124.13 17.2633 124.02 17.3953 123.88 17.4985C123.791 17.5801 123.69 17.6425 123.574 17.6881C123.459 17.7313 123.326 17.7553 123.179 17.7553H123.112C122.934 17.7481 122.777 17.7049 122.645 17.6281C122.51 17.5513 122.385 17.4385 122.267 17.2897L114.477 7.98007Z" fill="var(--fill-0, #979EA3)"/>
<path id="Vector_7" d="M43.1456 22.1688C43.1456 22.104 43.1672 22.0512 43.2106 22.0104C43.2539 21.9696 43.3068 21.948 43.3694 21.948H45.2737C45.5987 21.948 45.902 22.0056 46.1885 22.1208C46.475 22.236 46.723 22.3944 46.9348 22.5984C47.1467 22.8 47.3128 23.04 47.438 23.316C47.5607 23.592 47.6233 23.892 47.6233 24.2136C47.6233 24.4656 47.5848 24.6984 47.5102 24.9144C47.4331 25.1304 47.3272 25.3272 47.1924 25.5C47.0552 25.6728 46.8939 25.824 46.7061 25.9512C46.5183 26.0784 46.3137 26.1768 46.0874 26.2488L47.5222 28.1496C47.5752 28.2 47.5968 28.26 47.5896 28.3272C47.5824 28.3944 47.5535 28.4448 47.503 28.4832C47.462 28.5144 47.4163 28.5288 47.3681 28.5288C47.3056 28.5288 47.2526 28.5072 47.2069 28.4616L45.6011 26.3496C45.5433 26.3568 45.4856 26.3616 45.4278 26.3664C45.37 26.3688 45.3122 26.3712 45.2544 26.3712H43.5861V28.3176C43.5861 28.38 43.5644 28.4304 43.5211 28.4736C43.4778 28.5168 43.4248 28.5384 43.3646 28.5384C43.302 28.5384 43.2515 28.5168 43.2057 28.4736C43.1624 28.4304 43.1407 28.3776 43.1407 28.3176V22.1688H43.1456ZM43.5885 22.3944V25.9272H45.2617C45.5409 25.9272 45.7985 25.884 46.032 25.7952C46.2656 25.7088 46.4678 25.5864 46.6363 25.4328C46.8048 25.2768 46.9372 25.0968 47.0311 24.8856C47.125 24.6768 47.1731 24.4512 47.1731 24.2112C47.1731 23.9688 47.1274 23.736 47.0335 23.52C46.9396 23.3016 46.812 23.1096 46.6435 22.9392C46.475 22.7712 46.2776 22.6392 46.0441 22.5408C45.8106 22.4424 45.5578 22.3944 45.2833 22.3944H43.5885Z" fill="var(--fill-0, #979EA3)"/>
<path id="Vector_8" d="M52.443 28.5384C52.378 28.5312 52.3274 28.5048 52.2913 28.4616C52.2552 28.416 52.2359 28.3632 52.2359 28.3008V22.1688C52.2359 22.0992 52.26 22.0464 52.3057 22.0056C52.3515 21.9672 52.4068 21.9456 52.4694 21.9456H56.5091C56.5717 21.9456 56.6222 21.9672 56.6656 22.008C56.7089 22.0488 56.7306 22.1016 56.7306 22.1688C56.7306 22.2312 56.7089 22.284 56.6656 22.3272C56.6222 22.3728 56.5693 22.3944 56.5091 22.3944H52.6813V24.948H55.5678C55.6328 24.9432 55.6881 24.9648 55.7291 25.0128C55.77 25.0584 55.7917 25.1136 55.7917 25.176C55.7917 25.2384 55.77 25.2888 55.7291 25.3296C55.6881 25.3704 55.6352 25.392 55.5678 25.392H52.6813V28.0896H56.5091C56.5717 28.0896 56.6222 28.1112 56.6656 28.1544C56.7089 28.1976 56.7306 28.2504 56.7306 28.3104C56.7306 28.3752 56.7089 28.4304 56.6656 28.476C56.6222 28.5192 56.5693 28.5408 56.5091 28.5384H52.443Z" fill="var(--fill-0, #979EA3)"/>
<path id="Vector_9" d="M66.4444 28.3176C66.4444 28.3752 66.4252 28.4256 66.3891 28.4664C66.353 28.5072 66.3096 28.5312 66.2567 28.5384H66.1989C66.1604 28.5384 66.1291 28.524 66.1002 28.4976L66.0641 28.4664L61.6585 22.8024V28.3176C61.6585 28.38 61.6369 28.4328 61.5935 28.4736C61.5502 28.5168 61.4972 28.5384 61.437 28.5384C61.3744 28.5384 61.3239 28.5168 61.2806 28.4736C61.2372 28.4304 61.2156 28.3776 61.2156 28.3176V22.1736C61.2156 22.1112 61.2372 22.0584 61.2806 22.0128C61.3239 21.9696 61.3769 21.9456 61.437 21.9456C61.5069 21.9456 61.567 21.9768 61.6224 22.0392L65.9919 27.6504V22.1736C65.9919 22.1112 66.0135 22.0584 66.0569 22.0128C66.1002 21.9696 66.1532 21.9456 66.2182 21.9456C66.288 21.9456 66.3409 21.9672 66.3819 22.0128C66.4204 22.0584 66.442 22.1112 66.442 22.1736V28.3176H66.4444Z" fill="var(--fill-0, #979EA3)"/>
<path id="Vector_10" d="M73.3754 22.3944V28.3104C73.3754 28.3728 73.3537 28.4256 73.3104 28.4712C73.267 28.5144 73.2141 28.5384 73.1467 28.5384C73.0817 28.5384 73.0287 28.5168 72.9878 28.4712C72.9444 28.4256 72.9252 28.3728 72.9252 28.3104V22.3944H70.8187C70.7561 22.3944 70.7031 22.3728 70.6574 22.3272C70.6117 22.2816 70.59 22.2288 70.59 22.1664C70.59 22.104 70.6117 22.0536 70.6574 22.0104C70.7007 21.9672 70.7561 21.9456 70.8187 21.9456H75.4818C75.5517 21.9456 75.607 21.9672 75.648 22.0128C75.6889 22.0584 75.7106 22.1112 75.7106 22.1736C75.7106 22.2384 75.6889 22.2912 75.648 22.3344C75.607 22.3752 75.5517 22.3968 75.4818 22.3968H73.3754V22.3944Z" fill="var(--fill-0, #979EA3)"/>
<path id="Vector_11" d="M89.5122 26.8848H85.9011L85.2511 28.404C85.2343 28.4496 85.2054 28.4832 85.1693 28.5048C85.1307 28.5264 85.0898 28.5384 85.0465 28.5384C85.0152 28.5384 84.9839 28.5336 84.9526 28.5216C84.8948 28.4952 84.8539 28.452 84.8346 28.3968C84.813 28.3392 84.8178 28.2816 84.8443 28.224L87.4996 22.08C87.543 21.9912 87.6152 21.9456 87.7115 21.9456C87.8078 21.9456 87.8752 21.9912 87.9137 22.08L90.5739 28.2288C90.598 28.2864 90.6028 28.344 90.5835 28.3992C90.5667 28.4544 90.5306 28.4952 90.4752 28.524C90.4463 28.5384 90.415 28.5456 90.3765 28.5456C90.2802 28.5456 90.2104 28.5 90.1646 28.4112L89.5122 26.8848ZM86.0841 26.436H89.3269L87.7091 22.656L86.0841 26.436Z" fill="var(--fill-0, #979EA3)"/>
<path id="Vector_12" d="M105.753 22.8936C105.796 22.9416 105.82 22.9944 105.82 23.0544C105.82 23.112 105.798 23.1648 105.76 23.208C105.714 23.2536 105.661 23.2752 105.599 23.2752C105.536 23.2752 105.483 23.2536 105.437 23.208C105.144 22.92 104.821 22.7016 104.465 22.5576C104.108 22.4112 103.742 22.3392 103.367 22.3392C102.965 22.3392 102.584 22.416 102.231 22.5672C101.877 22.7208 101.569 22.9272 101.306 23.1936C101.044 23.4576 100.837 23.7672 100.687 24.12C100.536 24.4728 100.459 24.852 100.459 25.2528C100.459 25.6416 100.531 26.0112 100.678 26.3616C100.825 26.7144 101.027 27.0216 101.287 27.288C101.547 27.5544 101.855 27.7656 102.209 27.9216C102.565 28.0776 102.948 28.1568 103.36 28.1568C103.738 28.1616 104.104 28.0944 104.455 27.9576C104.806 27.8208 105.129 27.6072 105.425 27.3168C105.469 27.2736 105.526 27.2496 105.591 27.2496C105.647 27.2496 105.695 27.2688 105.741 27.3072C105.786 27.3504 105.808 27.4056 105.808 27.4704C105.808 27.5352 105.786 27.5856 105.745 27.6264C105.408 27.9624 105.035 28.2096 104.626 28.368C104.217 28.5264 103.793 28.6056 103.355 28.6056C103.044 28.6056 102.748 28.5648 102.462 28.4856C102.175 28.4064 101.91 28.2936 101.66 28.1496C101.412 28.0056 101.188 27.8328 100.984 27.6264C100.779 27.4224 100.606 27.1968 100.461 26.9472C100.317 26.6976 100.204 26.4312 100.124 26.1456C100.045 25.86 100.006 25.5648 100.006 25.2552C100.006 24.96 100.045 24.672 100.119 24.3936C100.194 24.1152 100.302 23.8512 100.442 23.604C100.581 23.3568 100.75 23.1288 100.95 22.92C101.15 22.7112 101.374 22.5312 101.624 22.38C101.874 22.2288 102.144 22.1112 102.438 22.0272C102.729 21.9432 103.039 21.9024 103.367 21.9024C103.8 21.9024 104.224 21.9864 104.636 22.1544C105.05 22.3152 105.42 22.5648 105.753 22.8936Z" fill="var(--fill-0, #979EA3)"/>
<path id="Vector_13" d="M114.306 26.8848H110.695L110.045 28.404C110.028 28.4496 110.002 28.4832 109.963 28.5048C109.925 28.5264 109.884 28.5384 109.838 28.5384C109.807 28.5384 109.775 28.5336 109.744 28.5216C109.686 28.4952 109.645 28.452 109.626 28.3968C109.607 28.3392 109.609 28.2816 109.636 28.224L112.291 22.08C112.334 21.9912 112.407 21.9456 112.503 21.9456C112.599 21.9456 112.667 21.9912 112.705 22.08L115.365 28.2288C115.389 28.2864 115.392 28.344 115.375 28.3992C115.358 28.4544 115.322 28.4952 115.267 28.524C115.238 28.5384 115.206 28.5456 115.168 28.5456C115.072 28.5456 114.999 28.5 114.956 28.4112L114.306 26.8848ZM110.876 26.436H114.118L112.501 22.656L110.876 26.436Z" fill="var(--fill-0, #979EA3)"/>
<path id="Vector_14" d="M119.605 22.1688C119.605 22.104 119.626 22.0512 119.67 22.0104C119.713 21.9696 119.766 21.948 119.828 21.948H121.733C122.058 21.948 122.361 22.0056 122.647 22.1208C122.934 22.236 123.182 22.3944 123.394 22.5984C123.606 22.8 123.772 23.04 123.897 23.316C124.022 23.592 124.082 23.892 124.082 24.2136C124.082 24.4656 124.044 24.6984 123.969 24.9144C123.892 25.1304 123.786 25.3272 123.651 25.5C123.514 25.6728 123.353 25.824 123.165 25.9512C122.977 26.0784 122.773 26.1768 122.546 26.2488L123.981 28.1496C124.032 28.2 124.056 28.26 124.049 28.3272C124.041 28.3944 124.012 28.4448 123.96 28.4832C123.919 28.5144 123.873 28.5288 123.825 28.5288C123.762 28.5288 123.709 28.5072 123.663 28.4616L122.058 26.3496C122 26.3568 121.942 26.3616 121.887 26.3664C121.829 26.3688 121.771 26.3712 121.713 26.3712H120.045V28.3176C120.045 28.38 120.023 28.4304 119.98 28.4736C119.937 28.5168 119.884 28.5384 119.824 28.5384C119.761 28.5384 119.71 28.5168 119.665 28.4736C119.621 28.4304 119.6 28.3776 119.6 28.3176V22.1688H119.605ZM120.05 22.3944V25.9272H121.723C122.002 25.9272 122.26 25.884 122.493 25.7952C122.727 25.7088 122.929 25.5864 123.098 25.4328C123.266 25.2768 123.399 25.0968 123.492 24.8856C123.586 24.6768 123.635 24.4512 123.635 24.2112C123.635 23.9688 123.589 23.736 123.495 23.52C123.401 23.3016 123.273 23.1096 123.105 22.9392C122.936 22.7712 122.739 22.6392 122.505 22.5408C122.274 22.4424 122.019 22.3944 121.745 22.3944H120.05Z" fill="var(--fill-0, #979EA3)"/>
</g>
<path id="Vector_15" d="M32.1581 16.0296C32.1581 16.9416 32.0811 17.832 31.9343 18.7008C30.6607 26.2824 24.0452 32.0592 16.0791 32.0592C7.19815 32.0592 0 24.8832 0 16.0296C0 7.176 7.19815 0 16.0791 0C23.0798 0 29.0357 4.4616 31.2433 10.6872H25.3644C23.5107 7.4952 20.0441 5.3448 16.0791 5.3448C10.1593 5.3448 5.35889 10.1304 5.35889 16.032C5.35889 21.9336 10.1593 26.7192 16.0791 26.7192C21.0744 26.7192 25.2706 23.3136 26.4598 18.7032H16.0791V21.0816L10.7202 16.0296L16.0791 10.98V13.3584H31.9343C32.0811 14.2272 32.1581 15.1176 32.1581 16.0296Z" fill="var(--fill-0, #979EA3)"/>
</g>
</svg>
