<svg preserveAspectRatio="none" width="100%" height="100%" overflow="visible" style="display: block;" viewBox="0 0 160.697 30" fill="none" xmlns="http://www.w3.org/2000/svg">
<g id="Group">
<path id="Vector" d="M5.48187 5.50965V24.5223H16.8281V20.4777H11.7924V15H22.3099V30H0V0.0319824H22.3099V5.50965H5.48187Z" fill="var(--fill-0, #979EA3)"/>
<path id="Vector_2" d="M77.099 0.0318489V20.5413H72.4458L77.6727 29.968H71.6171L66.3902 20.5413H60.2709V29.968H54.789V0H77.099V0.0318489ZM60.2709 15.0636H71.6171V5.50952H60.2709V15.0636Z" fill="var(--fill-0, #979EA3)"/>
<path id="Vector_3" d="M87.7123 0.0319824V30H82.2305V0.0319824H87.7123Z" fill="var(--fill-0, #979EA3)"/>
<path id="Vector_4" d="M98.1313 24.5223V0.0320191H92.6495V30H111.772V24.5223H98.1313Z" fill="var(--fill-0, #979EA3)"/>
<path id="Vector_5" d="M120.06 24.5223V0.0320191H114.578V30H133.701V24.5223H120.06Z" fill="var(--fill-0, #979EA3)"/>
<path id="Vector_6" d="M156.235 0.0320435L160.697 30H155.215L154.004 22.0383H143.423L142.211 30H136.73L141.192 0.0320435H156.235ZM153.494 17.3568L151.645 4.71354H145.781L143.932 17.3568H153.494Z" fill="var(--fill-0, #979EA3)"/>
<g id="Group_2">
<path id="Vector_7" d="M27.3752 30H50.0357V0.0320191H27.3752V30ZM42.2591 10.4778V11.3695H45.0319V26.2739H32.4427V11.3695H35.2155V10.4778H37.574L29.7337 7.73897L31.136 3.75811L38.7214 6.40141L46.3067 3.75811L47.7091 7.73897L39.8687 10.4778H42.2591Z" fill="var(--fill-0, #979EA3)"/>
<path id="Vector_8" d="M43.2464 21.1145H34.1631V22.484H43.2464V21.1145Z" fill="var(--fill-0, #979EA3)"/>
<path id="Vector_9" d="M38.3098 14.1407V13.8859V12.4847H36.6525V13.8859V14.1407H38.3098Z" fill="var(--fill-0, #979EA3)"/>
<path id="Vector_10" d="M39.1027 13.8859V14.1407H40.76V13.8859V12.4847H39.1027V13.8859Z" fill="var(--fill-0, #979EA3)"/>
</g>
</g>
</svg>
