<svg preserveAspectRatio="none" width="100%" height="100%" overflow="visible" style="display: block;" viewBox="0 0 130 30" fill="none" xmlns="http://www.w3.org/2000/svg">
<g id="Gymnific Logo 2022 1">
<g id="Group">
<path id="c" d="M122.028 13.2061L122.238 11.7013H120.325L119.477 17.7715H121.39L121.605 16.232H128.097L127.601 19.7822L124.387 22.5961H115.157L112.708 19.759L114.113 9.68995L117.328 6.87608H126.558L129.007 9.71313L128.519 13.2061H122.028Z" fill="var(--fill-0, #979EA3)"/>
<g id="i">
<path id="Vector" d="M105.69 6.87613H112.182L109.988 22.5961H103.496L105.69 6.87613Z" fill="var(--fill-0, #979EA3)"/>
<path id="Vector_2" d="M112.942 1.42432L112.437 5.04068H105.945L106.45 1.42432H112.942Z" fill="var(--fill-0, #979EA3)"/>
</g>
<path id="f" d="M101.271 5.47359L101.074 6.87609H103.462L102.789 11.7013H100.401L98.8805 22.5961H92.3887L94.9203 4.46041L98.1655 1.427H104.222L103.658 5.47359H101.271Z" fill="var(--fill-0, #979EA3)"/>
<g id="i_1_">
<path id="Vector_3" d="M85.5265 6.87613H92.0183L89.8239 22.5961H83.332L85.5265 6.87613Z" fill="var(--fill-0, #979EA3)"/>
<path id="Vector_4" d="M92.7794 1.42432L92.2743 5.04068H85.7831L86.2875 1.42432H92.7794Z" fill="var(--fill-0, #979EA3)"/>
</g>
<path id="n" d="M82.8722 9.71302L81.0739 22.596H74.5827L76.0134 12.3442H73.2116L71.7809 22.596H65.2891L67.4835 6.87598H72.3551L73.8569 8.73052L76.5063 6.87598H80.4232L82.8722 9.71302Z" fill="var(--fill-0, #979EA3)"/>
<path id="m" d="M64.8212 9.71302L63.0235 22.596H56.5316L57.963 12.3442H55.4564L54.0251 22.596H47.5339L48.9652 12.3442H46.5183L45.0869 22.596H38.5957L40.7895 6.87598H45.5433L47.0823 8.74552L49.7757 6.87598H53.6825L55.1917 9.00393L57.8255 6.87598H62.3722L64.8212 9.71302Z" fill="var(--fill-0, #979EA3)"/>
<path id="y" d="M39.2985 6.87598L29.7753 28.5762H23.2834L25.9085 22.596H25.379L23.1846 6.87598H29.6764L29.8857 13.5332L32.8073 6.87598H39.2985Z" fill="var(--fill-0, #979EA3)"/>
<path id="Vector_5" d="M21.1158 8.80563L21.585 5.44154L18.1163 1.42358H7.155L2.86026 5.18313L0.992188 18.572L4.46089 22.5906H15.4215L19.7251 18.8277L20.4604 13.4945C20.4604 13.4945 17.471 10.8811 17.4622 10.8715H12.2677L11.3252 11.6263L11.0022 13.982L11.5256 14.6106H14.6395L15.8217 13.5231L16.0857 13.7543L15.2109 14.9331L14.4499 16.9049L14.5264 17.7272L14.2556 17.7245L14.0382 16.8661L13.3415 15.9415L10.3251 15.3456L9.29052 15.4847L8.28438 16.3459L9.5925 6.87608H14.4181L14.1486 8.80495H21.1158V8.80563Z" fill="var(--fill-0, #979EA3)"/>
</g>
</g>
</svg>
