<svg preserveAspectRatio="none" width="100%" height="100%" overflow="visible" style="display: block;" viewBox="0 0 30 26" fill="none" xmlns="http://www.w3.org/2000/svg">
<g id="Group">
<path id="Vector" d="M11.3973 9.37184C11.8792 9.83913 12.495 10.0728 13.1644 10.0728H16.8325C17.5286 10.0728 18.1444 9.83913 18.5996 9.37184L24.1151 3.99796C24.5435 3.58258 24.6239 3.14125 24.6239 2.82972C24.6239 2.54415 24.5435 2.10282 24.1151 1.66149L22.9371 0.519215C22.589 0.181725 22.1874 0 21.759 0C21.4377 0 21.0093 0.0778823 20.5541 0.519215L15.5473 5.37387C15.2528 5.65944 14.7441 5.65944 14.4496 5.37387L9.44276 0.519215C9.01437 0.103843 8.5592 0 8.23791 0C7.94339 0 7.48822 0.0778823 7.05983 0.519215L5.88177 1.66149C5.45338 2.07686 5.37305 2.51819 5.37305 2.82972C5.37305 3.11529 5.45338 3.58258 5.88177 3.99796L11.3973 9.37184Z" fill="var(--fill-0, #979EA3)"/>
<path id="Vector_2" d="M29.9282 12.1495L29.4998 10.5918C29.3392 10.0207 28.9911 9.70918 28.7234 9.57937C28.4556 9.42361 28.0273 9.29381 27.4382 9.44957L19.9146 11.3966C19.272 11.5784 18.7365 11.9678 18.3885 12.5389L16.5678 15.6282C16.2197 16.1994 16.1394 16.8484 16.3001 17.4714L18.3081 24.7664C18.4688 25.3376 18.8169 25.6491 19.0846 25.7789C19.3523 25.9347 19.7807 26.0645 20.3698 25.9087L21.9762 25.4933C22.4314 25.3635 22.8063 25.1039 23.0204 24.7405C23.1811 24.4809 23.315 24.0655 23.1543 23.4943L21.3336 16.8484C21.2265 16.433 21.4675 16.0176 21.8959 15.9138L28.7234 14.1225C29.3124 13.9667 29.6069 13.6293 29.7676 13.3696C29.955 13.136 30.0889 12.7206 29.9282 12.1495Z" fill="var(--fill-0, #979EA3)"/>
<path id="Vector_3" d="M13.4334 15.6284L11.6127 12.5391C11.2647 11.9679 10.756 11.5525 10.0866 11.3968L2.563 9.44973C1.97397 9.29396 1.54558 9.44973 1.27783 9.57953C1.01009 9.7353 0.662016 10.0209 0.50137 10.592L0.072986 12.1496C-0.060886 12.591 -0.00733718 13.0323 0.206858 13.3958C0.367505 13.6554 0.662013 13.9929 1.25105 14.1486L8.07852 15.9399C8.48014 16.0438 8.74789 16.4591 8.6408 16.8745L6.79336 23.5205C6.63271 24.0916 6.79336 24.507 6.92723 24.7666C7.08787 25.0262 7.3824 25.3637 7.97144 25.5194L9.5779 25.9348C10.1669 26.0906 10.5953 25.9348 10.8631 25.805C11.1308 25.6492 11.4789 25.3637 11.6395 24.7925L13.6476 17.4976C13.8886 16.8485 13.7815 16.1995 13.4334 15.6284Z" fill="var(--fill-0, #979EA3)"/>
</g>
</svg>
