<svg preserveAspectRatio="none" width="100%" height="100%" overflow="visible" style="display: block;" viewBox="0 0 114 20" fill="none" xmlns="http://www.w3.org/2000/svg">
<g id="Group">
<path id="Vector" d="M14.8141 18.9552C14.8141 19.2836 14.7256 19.5224 14.5485 19.7015C14.3715 19.8806 14.1059 20 13.7813 20H4.92819C4.39701 20 3.92486 19.791 3.54123 19.403L0.590205 16.4179C0.206572 16.0299 0 15.5522 0 15.0149V1.04478C0 0.716418 0.0885199 0.477612 0.265581 0.298507C0.442643 0.119403 0.708246 0 1.03286 0H2.9215C3.24611 0 3.4822 0.0895522 3.65926 0.298507C3.83632 0.477612 3.95436 0.746269 3.95436 1.04478V15.0149C3.95436 15.2836 4.0429 15.5224 4.21996 15.7015C4.39702 15.8806 4.63309 16 4.92819 16H13.7813C14.1059 16 14.342 16.0895 14.5485 16.2985C14.7256 16.4776 14.8141 16.7463 14.8141 17.0448V18.9552Z" fill="var(--fill-0, #979EA3)"/>
<path id="Vector_2" d="M22.9008 18.9552C22.9008 19.2836 22.8123 19.5224 22.6057 19.7015C22.4286 19.8806 22.1631 20 21.868 20H19.9793C19.6547 20 19.4186 19.9104 19.212 19.7015C19.035 19.5224 18.9464 19.2537 18.9464 18.9552V1.04478C18.9464 0.716418 19.035 0.477612 19.212 0.298507C19.3891 0.119403 19.6547 0 19.9793 0H21.868C22.1926 0 22.4286 0.0895522 22.6057 0.298507C22.7828 0.477612 22.9008 0.746269 22.9008 1.04478V18.9552Z" fill="var(--fill-0, #979EA3)"/>
<path id="Vector_3" d="M44.4423 12.2686C44.7669 12.5969 44.9735 13.0149 44.9735 13.4925V15.4925C44.9735 15.9999 44.7964 16.4477 44.4718 16.7761L41.7864 19.4626C41.6388 19.6119 41.4322 19.7611 41.2257 19.8507C41.0191 19.9402 40.783 19.9999 40.5469 19.9999H27.9756C27.6805 19.9999 27.4739 19.9104 27.2968 19.7313C27.1198 19.5522 27.0312 19.3432 27.0312 19.0447V17.0746C27.0312 16.7761 27.1198 16.5671 27.2968 16.388C27.4739 16.2089 27.6805 16.1492 27.9756 16.1492H40.5469C40.783 16.1492 40.9896 16.0596 41.1667 15.9104C41.3437 15.7313 41.4322 15.4925 41.4322 15.2537V15.2835C41.4322 15.0447 41.3142 14.8656 41.0486 14.7462C40.3109 14.388 29.6872 9.19397 29.333 9.01487C28.7428 8.68651 28.1231 8.35815 27.651 7.97009C27.2673 7.67159 27.0312 7.16411 27.0312 6.6865V4.53726C27.0312 4.29845 27.0903 4.05964 27.1788 3.82083C27.2673 3.58203 27.4149 3.40292 27.5624 3.25366L30.2479 0.567095C30.602 0.208886 31.0151 0.0297852 31.4873 0.0297852H44.0291C44.3242 0.0297852 44.5308 0.119345 44.7079 0.298449C44.8849 0.477554 44.944 0.686505 44.944 0.985013V2.98502C44.944 3.28352 44.8554 3.49248 44.7079 3.67158C44.5308 3.85068 44.3242 3.94024 44.0291 3.94024H31.4873C31.4578 3.94024 31.4283 3.94024 31.3988 3.94024C31.1922 3.97009 31.0151 4.05964 30.8676 4.20889C30.6905 4.38799 30.6315 4.59695 30.6315 4.86561V5.01486C30.6315 5.25367 30.7791 5.43278 30.9856 5.52233C32.4611 6.23875 42.1995 10.985 42.4946 11.1044C43.2029 11.4029 43.9111 11.7611 44.4423 12.2686Z" fill="var(--fill-0, #979EA3)"/>
<path id="Vector_4" d="M66.5148 12.2686C66.8394 12.5969 67.0459 13.0149 67.0459 13.4925V15.4925C67.0459 15.9999 66.8689 16.4477 66.5443 16.7761L63.8588 19.4626C63.7113 19.6119 63.5047 19.7611 63.2982 19.8507C63.0916 19.9402 62.8555 19.9999 62.6194 19.9999H50.0481C49.753 19.9999 49.5464 19.9104 49.3693 19.7313C49.1923 19.5522 49.1037 19.3432 49.1037 19.0447V17.0746C49.1037 16.7761 49.1923 16.5671 49.3693 16.388C49.5464 16.2089 49.753 16.1492 50.0481 16.1492H62.5899C62.826 16.1492 63.0325 16.0596 63.2096 15.9104C63.3867 15.7313 63.4752 15.4925 63.4752 15.2537V15.2835C63.4752 15.0447 63.3572 14.8656 63.0916 14.7462C62.3538 14.388 51.7301 9.19397 51.376 9.01487C50.7858 8.68651 50.1661 8.35815 49.6939 7.97009C49.3103 7.67159 49.0742 7.16411 49.0742 6.6865V4.53726C49.0742 4.29845 49.1332 4.05964 49.2218 3.82083C49.3103 3.58203 49.4578 3.40292 49.6054 3.25366L52.2908 0.567095C52.6449 0.208886 53.0581 0.0297852 53.5303 0.0297852H66.0721C66.3672 0.0297852 66.5738 0.119345 66.7508 0.298449C66.9279 0.477554 66.9869 0.686505 66.9869 0.985013V2.98502C66.9869 3.28352 66.8984 3.49248 66.7508 3.67158C66.5738 3.85068 66.3672 3.94024 66.0721 3.94024H53.5303C53.5007 3.94024 53.4712 3.94024 53.4417 3.94024C53.2352 3.97009 53.0581 4.05964 52.9105 4.20889C52.7335 4.38799 52.6745 4.59695 52.6745 4.86561V5.01486C52.6745 5.25367 52.822 5.43278 53.0286 5.52233C54.5041 6.23875 64.2425 10.985 64.5376 11.1044C65.2753 11.4029 65.9836 11.7611 66.5148 12.2686Z" fill="var(--fill-0, #979EA3)"/>
<path id="Vector_5" d="M91.8932 15.0149C91.8932 15.5522 91.6866 16.0299 91.303 16.4179L88.352 19.403C88.1749 19.5821 87.9683 19.7313 87.7322 19.8507C87.4962 19.9701 87.2306 20 86.9355 20H76.0757C75.5445 20 75.0724 19.791 74.6887 19.403L71.7377 16.4179C71.3541 16.0299 71.1475 15.5522 71.1475 15.0149V1.04478C71.1475 0.716418 71.236 0.477612 71.4131 0.298507C71.5902 0.119403 71.8558 0 72.1804 0H74.069C74.3936 0 74.6297 0.0895522 74.8068 0.298507C74.9838 0.477612 75.1019 0.746269 75.1019 1.04478V15.0149C75.1019 15.2836 75.1904 15.5224 75.3675 15.7015C75.5445 15.8806 75.7806 16 76.0462 16H86.906C87.1716 16 87.4077 15.9104 87.6142 15.7015C87.8208 15.5224 87.9093 15.2836 87.9093 15.0149V1.04478C87.9093 0.716418 87.9978 0.477612 88.1749 0.298507C88.352 0.119403 88.6176 0 88.9422 0H90.8308C91.1554 0 91.3915 0.0895522 91.5686 0.298507C91.7456 0.477612 91.8637 0.746269 91.8637 1.04478L91.8932 15.0149Z" fill="var(--fill-0, #979EA3)"/>
<path id="Vector_6" d="M113.469 12.2686C113.793 12.5969 114 13.0149 114 13.4925V15.4925C114 15.9999 113.823 16.4477 113.498 16.7761L110.813 19.4626C110.665 19.6119 110.459 19.7611 110.252 19.8507C110.046 19.9402 109.81 19.9999 109.573 19.9999H97.0021C96.707 19.9999 96.5005 19.9104 96.3234 19.7313C96.1463 19.5522 96.0873 19.3432 96.0873 19.0447V17.0746C96.0873 16.7761 96.1758 16.5671 96.3234 16.388C96.5005 16.2089 96.707 16.1492 97.0021 16.1492H109.573C109.81 16.1492 110.016 16.0596 110.193 15.9104C110.37 15.7313 110.459 15.4925 110.459 15.2537V15.2835C110.459 15.0447 110.341 14.8656 110.075 14.7462C109.337 14.388 98.7137 9.19397 98.3596 9.01487C97.7694 8.68651 97.1497 8.35815 96.6775 7.97009C96.2939 7.67159 96.0578 7.16411 96.0578 6.6865V4.53726C96.0578 4.29845 96.1168 4.05964 96.2054 3.82083C96.2939 3.58203 96.4414 3.40292 96.589 3.25366L99.2744 0.567095C99.6285 0.208886 100.042 0.0297852 100.514 0.0297852H113.056C113.351 0.0297852 113.557 0.119345 113.734 0.298449C113.911 0.477554 113.97 0.686505 113.97 0.985013V2.98502C113.97 3.28352 113.882 3.49248 113.734 3.67158C113.557 3.85068 113.351 3.94024 113.056 3.94024H100.514C100.484 3.94024 100.455 3.94024 100.425 3.94024C100.219 3.97009 100.042 4.05964 99.8941 4.20889C99.7171 4.38799 99.658 4.59695 99.658 4.86561V5.01486C99.658 5.25367 99.8056 5.43278 100.012 5.52233C101.488 6.23875 111.226 10.985 111.521 11.1044C112.229 11.4029 112.908 11.7611 113.469 12.2686Z" fill="var(--fill-0, #979EA3)"/>
</g>
</svg>
