<svg width="166" height="26" viewBox="0 0 166 26" fill="none" xmlns="http://www.w3.org/2000/svg">
<path d="M14 26H0V0H2.47753V23.7805H14V26Z" fill="#979EA3"/>
<path d="M24.5 7.0004C29.2015 7.04134 33 10.0816 33 16.5C33 22.9184 29.1917 25.9689 24.5 25.9996C19.7985 26.0406 16 22.9184 16 16.5C16 10.0816 19.7985 6.95945 24.5 7.0004ZM24.5589 9.00678C21.0254 8.96583 18.601 11.3714 18.601 16.5C18.601 21.6286 21.0156 24.0342 24.5589 23.9932C28.0924 23.9523 30.5167 21.6286 30.5167 16.5C30.5167 11.3714 28.0924 9.04773 24.5589 9.00678Z" fill="#979EA3"/>
<path d="M52 14.7066V26H49.6272V14.7066C49.6272 12.0113 49.3487 9.1521 45.9856 9.1521C43.9945 9.1521 39.5997 10.9968 39.5997 17.3506V26H37V7.2972H39.5997V12.1855C41.1988 8.57821 43.8913 7 46.6458 7C51.5461 7 52 10.2589 52 14.7066Z" fill="#979EA3"/>
<path d="M60 1V4.44863H57V1H60ZM60 7.32419H57V26H60V7.32419Z" fill="#979EA3"/>
<path d="M97 13C97 21.8396 90.6419 26 83.7642 26H76V0H83.7642C90.6419 0 97 4.16041 97 13ZM94.3304 13C94.3304 5.57433 88.7875 2.33959 83.6521 2.33959H78.5575V23.6502H83.6521C88.8282 23.6604 94.3304 20.385 94.3304 13Z" fill="#979EA3"/>
<path d="M114 19.6261L113.941 19.7986C113.51 21.0064 112.843 22.0214 111.961 22.8232C111.088 23.6149 109.931 24.0107 108.529 24.0107C106.725 24.0107 105.235 23.3408 104.078 22.0011C102.951 20.7019 102.363 18.8953 102.333 16.6116H115.824L115.853 16.4391C115.922 15.9824 115.961 15.5256 115.961 15.0689C115.961 12.7548 115.245 10.8162 113.833 9.2938C112.422 7.77137 110.549 7 108.284 7C105.804 7 103.775 7.90331 102.265 9.67949C100.755 11.4557 100 13.7393 100 16.4797C100 19.3622 100.794 21.6966 102.363 23.4119C103.931 25.1271 105.98 26 108.451 26C109.461 26 110.402 25.8376 111.265 25.5331C112.127 25.2185 112.873 24.7922 113.48 24.2543C114.088 23.7163 114.598 23.1277 115 22.4781C115.402 21.8387 115.725 21.1384 115.941 20.4076L116 20.2046L114 19.6261ZM108.196 8.95887C109.843 8.95887 111.167 9.52724 112.157 10.6437C113.108 11.7297 113.627 13.0999 113.696 14.7238H102.451C102.706 13.0085 103.324 11.6181 104.304 10.5828C105.314 9.50694 106.627 8.95887 108.196 8.95887Z" fill="#979EA3"/>
<path d="M135 25.826H132.081L124.783 17.1047L122.65 19.2646V26H120V0H122.65V16.0402L131.832 7.24724H134.917L126.429 15.5386L135 25.826Z" fill="#979EA3"/>
<path d="M144.5 7.0004C149.201 7.04134 153 10.0816 153 16.5C153 22.9184 149.192 25.9689 144.5 25.9996C139.798 26.0406 136 22.9184 136 16.5C136 10.0816 139.808 6.95945 144.5 7.0004ZM144.559 9.00678C141.025 8.96583 138.601 11.3714 138.601 16.5C138.601 21.6286 141.016 24.0342 144.559 23.9932C148.092 23.9523 150.517 21.6286 150.517 16.5C150.517 11.3714 148.102 9.04773 144.559 9.00678Z" fill="#979EA3"/>
<path d="M166 9.76252C161.563 9.76252 159.685 12.8729 159.685 16.72V26H157V7.32741H159.685V12.2795C160.839 9.58858 162.486 7 165.916 7H165.99V9.76252H166Z" fill="#979EA3"/>
</svg>
