<svg preserveAspectRatio="none" width="100%" height="100%" overflow="visible" style="display: block;" viewBox="0 0 165.73 25.7104" fill="none" xmlns="http://www.w3.org/2000/svg">
<g id="Group">
<path id="Vector" d="M14.24 25.57H0V0.15H2.52V23.4H14.24V25.57Z" fill="var(--fill-0, #979EA3)"/>
<path id="Vector_2" d="M24.17 7.15C28.96 7.19 32.83 10.16 32.83 16.43C32.83 22.7 28.95 25.68 24.17 25.71C19.38 25.75 15.51 22.7 15.51 16.43C15.51 10.16 19.38 7.11 24.17 7.15ZM24.23 9.11C20.63 9.07 18.16 11.42 18.16 16.43C18.16 21.44 20.62 23.79 24.23 23.75C27.83 23.71 30.3 21.44 30.3 16.43C30.3 11.42 27.83 9.15 24.23 9.11Z" fill="var(--fill-0, #979EA3)"/>
<path id="Vector_3" d="M144.35 7.15005C149.14 7.19005 153.01 10.16 153.01 16.43C153.01 22.7 149.13 25.68 144.35 25.71C139.56 25.75 135.69 22.7 135.69 16.43C135.69 10.16 139.57 7.11005 144.35 7.15005ZM144.41 9.11005C140.81 9.07005 138.34 11.42 138.34 16.43C138.34 21.44 140.8 23.79 144.41 23.75C148.01 23.71 150.48 21.44 150.48 16.43C150.48 11.42 148.02 9.15005 144.41 9.11005Z" fill="var(--fill-0, #979EA3)"/>
<path id="Vector_4" d="M51.62 14.53V25.55H49.32V14.53C49.32 11.9 49.05 9.11 45.79 9.11C43.86 9.11 39.6 10.91 39.6 17.11V25.55H37.08V7.3H39.6V12.07C41.15 8.55 43.76 7.01 46.43 7.01C51.18 7.01 51.62 10.19 51.62 14.53Z" fill="var(--fill-0, #979EA3)"/>
<path id="Vector_5" d="M59.8097 1.27002V4.64002H57.1797V1.27002H59.8097ZM59.6997 7.45002H57.1797V25.7H59.6997V7.45002Z" fill="var(--fill-0, #979EA3)"/>
<path id="Vector_6" d="M96.5397 12.78C96.5397 21.47 90.2997 25.56 83.5497 25.56H75.9297V0H83.5497C90.2997 0 96.5397 4.09 96.5397 12.78ZM93.9197 12.78C93.9197 5.48 88.4797 2.3 83.4397 2.3H78.4397V23.25H83.4397C88.5197 23.26 93.9197 20.04 93.9197 12.78Z" fill="var(--fill-0, #979EA3)"/>
<path id="Vector_7" d="M134.92 25.3799H132.1L125.05 16.8599L122.99 18.9699V25.5499H120.43V0.149902H122.99V15.8199L131.86 7.2299H134.84L126.64 15.3299L134.92 25.3799Z" fill="var(--fill-0, #979EA3)"/>
<path id="Vector_8" d="M165.73 9.67998C161.5 9.67998 159.71 12.72 159.71 16.48V25.55H157.15V7.29998H159.71V12.14C160.81 9.50998 162.38 6.97998 165.65 6.97998H165.72V9.67998H165.73Z" fill="var(--fill-0, #979EA3)"/>
</g>
</svg>
