<svg preserveAspectRatio="none" width="100%" height="100%" overflow="visible" style="display: block;" viewBox="0 0 16.32 18.72" fill="none" xmlns="http://www.w3.org/2000/svg">
<g id="Group">
<path id="Vector" d="M14.28 12.44L14.22 12.61C13.78 13.8 13.1 14.8 12.2 15.59C11.31 16.37 10.13 16.76 8.7 16.76C6.86 16.76 5.34 16.1 4.16 14.78C3.01 13.5 2.41 11.72 2.38 9.47H16.14L16.17 9.3C16.24 8.85 16.28 8.4 16.28 7.95C16.28 5.67 15.55 3.76 14.11 2.26C12.67 0.76 10.76 0 8.45 0C5.92 0 3.85 0.889999 2.31 2.64C0.769997 4.39 0 6.64 0 9.34C0 12.18 0.809997 14.48 2.41 16.17C4.01 17.86 6.10001 18.72 8.62001 18.72C9.65001 18.72 10.61 18.56 11.49 18.26C12.37 17.95 13.13 17.53 13.75 17C14.37 16.47 14.89 15.89 15.3 15.25C15.71 14.62 16.04 13.93 16.26 13.21L16.32 13.01L14.28 12.44ZM8.36 1.93C10.04 1.93 11.39 2.49 12.4 3.59C13.37 4.66 13.9 6.01 13.97 7.61H2.5C2.76 5.92 3.39 4.55 4.39 3.53C5.42 2.47 6.76 1.93 8.36 1.93Z" fill="var(--fill-0, #979EA3)"/>
</g>
</svg>
