<svg preserveAspectRatio="none" width="100%" height="100%" overflow="visible" style="display: block;" viewBox="0 0 103.919 6.12857" fill="none" xmlns="http://www.w3.org/2000/svg">
<g id="Group">
<path id="Vector" d="M1.9902 5.95714V0.857144H9.47952e-07V0.128572H4.72941V0.835716H2.7392V5.93572H1.9902V5.95714Z" fill="var(--fill-0, #979EA3)"/>
<path id="Vector_2" d="M10.5078 5.95723V0.128662H14.5738V0.835806H11.2568V2.65723H13.9532V3.36438H11.2568V5.22866H14.5738V5.93581H10.5078V5.95723Z" fill="var(--fill-0, #979EA3)"/>
<path id="Vector_3" d="M23.326 6.12857C22.7482 6.12857 22.2346 6 21.7638 5.74286C21.293 5.48571 20.9506 5.12143 20.6724 4.65C20.4156 4.17857 20.2872 3.66429 20.2872 3.06429C20.2872 2.46429 20.4156 1.95 20.6724 1.47857C20.9292 1.00714 21.293 0.642857 21.7638 0.385714C22.2132 0.128572 22.7482 1.15803e-06 23.326 1.15803e-06C23.861 1.15803e-06 24.3104 0.107144 24.717 0.300001C25.1022 0.492859 25.4232 0.750001 25.68 1.07143C25.9154 1.39286 26.0866 1.73572 26.215 2.12143H25.466C25.3162 1.73572 25.0594 1.39286 24.6956 1.11429C24.3318 0.835715 23.8824 0.707143 23.3474 0.707143C22.9194 0.707143 22.5128 0.814286 22.1704 1.00714C21.828 1.2 21.5498 1.47857 21.3572 1.84286C21.1646 2.20714 21.0576 2.61429 21.0576 3.08572C21.0576 3.55714 21.1646 3.96429 21.3572 4.32857C21.5498 4.69286 21.828 4.97143 22.1704 5.16429C22.5128 5.35714 22.9194 5.46428 23.3474 5.46428C23.9038 5.46428 24.3746 5.31429 24.7384 5.01429C25.1022 4.71429 25.359 4.35 25.5088 3.92143H26.2578C26.1294 4.30714 25.9582 4.67143 25.7014 5.01429C25.4446 5.35714 25.1236 5.63571 24.7384 5.85C24.3104 6.02143 23.8396 6.12857 23.326 6.12857Z" fill="var(--fill-0, #979EA3)"/>
<path id="Vector_4" d="M32.2498 5.95714V0.128572H32.9988V2.65714H36.1018V0.128572H36.8508V5.93572H36.1018V3.36429H32.9988V5.93572H32.2498V5.95714Z" fill="var(--fill-0, #979EA3)"/>
<path id="Vector_5" d="M43.207 5.95723V0.128662H44.277L47.1232 5.0358H47.1446V4.95009V0.128662H47.8936V5.93581H46.8236L43.9774 1.02866H43.956V1.11438V5.93581L43.207 5.95723Z" fill="var(--fill-0, #979EA3)"/>
<path id="Vector_6" d="M56.9882 6.12857C56.4104 6.12857 55.8968 6 55.426 5.74286C54.9766 5.48571 54.6128 5.12143 54.3346 4.65C54.0778 4.17857 53.9494 3.66429 53.9494 3.06429C53.9494 2.46429 54.0778 1.95 54.3346 1.47857C54.5914 1.00714 54.9552 0.642857 55.426 0.385714C55.8754 0.128572 56.4104 1.15803e-06 56.9882 1.15803e-06C57.566 1.15803e-06 58.0796 0.128572 58.5504 0.385714C58.9998 0.642857 59.3636 1.00714 59.6418 1.47857C59.8986 1.95 60.027 2.46429 60.027 3.06429C60.027 3.66429 59.8986 4.17857 59.6418 4.65C59.385 5.12143 59.0212 5.48571 58.5504 5.74286C58.0796 5.97857 57.566 6.12857 56.9882 6.12857ZM56.9882 5.42143C57.4162 5.42143 57.8228 5.31429 58.1652 5.12143C58.5076 4.92857 58.7858 4.65 58.9784 4.28572C59.171 3.92143 59.278 3.51429 59.278 3.04286C59.278 2.57143 59.171 2.16429 58.9784 1.8C58.7858 1.43572 58.5076 1.15714 58.1652 0.964287C57.8228 0.77143 57.4162 0.664287 56.9882 0.664287C56.5602 0.664287 56.1536 0.77143 55.8112 0.964287C55.4688 1.15714 55.1906 1.43572 54.998 1.8C54.8054 2.16429 54.6984 2.57143 54.6984 3.04286C54.6984 3.51429 54.8054 3.92143 54.998 4.28572C55.1906 4.65 55.4688 4.92857 55.8112 5.12143C56.1536 5.31429 56.5388 5.42143 56.9882 5.42143Z" fill="var(--fill-0, #979EA3)"/>
<path id="Vector_7" d="M66.0832 5.95714V0.128572H66.8322V5.22857H69.871V5.93572H66.0832V5.95714Z" fill="var(--fill-0, #979EA3)"/>
<path id="Vector_8" d="M78.324 6.12857C77.7462 6.12857 77.2326 6 76.7618 5.74286C76.3124 5.48571 75.9486 5.12143 75.6704 4.65C75.4136 4.17857 75.2852 3.66429 75.2852 3.06429C75.2852 2.46429 75.4136 1.95 75.6704 1.47857C75.9272 1.00714 76.291 0.642857 76.7618 0.385714C77.2112 0.128572 77.7462 1.15803e-06 78.324 1.15803e-06C78.9018 1.15803e-06 79.4154 0.128572 79.8862 0.385714C80.3356 0.642857 80.6994 1.00714 80.9776 1.47857C81.2344 1.95 81.3628 2.46429 81.3628 3.06429C81.3628 3.66429 81.2344 4.17857 80.9776 4.65C80.7208 5.12143 80.357 5.48571 79.8862 5.74286C79.4154 5.97857 78.9018 6.12857 78.324 6.12857ZM78.324 5.42143C78.752 5.42143 79.1586 5.31429 79.501 5.12143C79.8434 4.92857 80.1216 4.65 80.3142 4.28572C80.5068 3.92143 80.6138 3.51429 80.6138 3.04286C80.6138 2.57143 80.5068 2.16429 80.3142 1.8C80.1216 1.43572 79.8434 1.15714 79.501 0.964287C79.1586 0.77143 78.752 0.664287 78.324 0.664287C77.896 0.664287 77.4894 0.77143 77.147 0.964287C76.8046 1.15714 76.5264 1.43572 76.3338 1.8C76.1412 2.16429 76.0342 2.57143 76.0342 3.04286C76.0342 3.51429 76.1412 3.92143 76.3338 4.28572C76.5264 4.65 76.8046 4.92857 77.147 5.12143C77.4894 5.31429 77.8746 5.42143 78.324 5.42143Z" fill="var(--fill-0, #979EA3)"/>
<path id="Vector_9" d="M90.1579 6.12857C89.5801 6.12857 89.0665 6 88.5957 5.74286C88.1463 5.48571 87.7825 5.12143 87.5043 4.65C87.2475 4.17857 87.1191 3.66428 87.1191 3.06428C87.1191 2.46428 87.2475 1.95 87.5043 1.47857C87.7611 1.00714 88.1249 0.642856 88.5957 0.385713C89.0451 0.12857 89.5801 0 90.1579 0C90.6715 0 91.1423 0.107143 91.5275 0.3C91.9127 0.492857 92.2337 0.75 92.4905 1.07143C92.7259 1.39286 92.9185 1.71428 93.0255 2.1H92.2765C92.1053 1.71428 91.8485 1.39286 91.5061 1.13571C91.1423 0.87857 90.6929 0.728572 90.1793 0.728572C89.7513 0.728572 89.3447 0.835713 89.0023 1.02857C88.6599 1.22143 88.3817 1.5 88.1891 1.86428C87.9965 2.22857 87.8895 2.63571 87.8895 3.10714C87.8895 3.57857 87.9965 3.98571 88.1891 4.35C88.3817 4.71428 88.6599 4.99286 89.0023 5.18571C89.3447 5.37857 89.7513 5.48571 90.1793 5.48571C90.5645 5.48571 90.9069 5.4 91.2279 5.25C91.5489 5.1 91.8057 4.86429 91.9983 4.60714C92.1909 4.32857 92.3193 4.02857 92.3835 3.70714H91.2707V2.91429H93.8387V3.62143H93.1325C93.0255 4.11429 92.8329 4.54286 92.5761 4.92857C92.3193 5.29286 91.9769 5.59286 91.5703 5.80714C91.1209 6.02143 90.6715 6.12857 90.1579 6.12857Z" fill="var(--fill-0, #979EA3)"/>
<path id="Vector_10" d="M100.944 5.95723V3.83581L98.6973 0.128662H99.5747L101.265 2.95723H101.351L103.041 0.128662H103.919L101.693 3.83581V5.95723H100.944Z" fill="var(--fill-0, #979EA3)"/>
</g>
</svg>
