<svg preserveAspectRatio="none" width="100%" height="100%" overflow="visible" style="display: block;" viewBox="0 0 37.3686 26.0981" fill="none" xmlns="http://www.w3.org/2000/svg">
<g id="Group">
<path id="Vector" d="M14.2331 16.7391L10.6379 25.8891C10.5309 26.1677 10.1457 26.1677 10.0387 25.8891L0.0235221 0.453428C-0.0834779 0.174857 0.194722 -0.0822861 0.451522 0.0248568L8.84032 3.68914C9.03292 3.77486 9.20412 3.94629 9.26832 4.13914L14.2331 16.7391Z" fill="var(--fill-0, #979EA3)"/>
<path id="Vector_2" d="M36.9171 0.0462854C37.1739 -0.0608575 37.4521 0.196285 37.3451 0.474857L27.3299 25.8677C27.2229 26.1463 26.8377 26.1463 26.7307 25.8677L23.1355 16.7391L28.1003 4.13914C28.1859 3.94629 28.3357 3.77486 28.5283 3.68914L36.9171 0.0462854Z" fill="var(--fill-0, #979EA3)"/>
<path id="Vector_3" d="M14.2334 16.7391L18.385 6.21772C18.492 5.93915 18.8772 5.93915 18.9842 6.21772L23.1358 16.7391L18.9414 14.9177C18.7702 14.8534 18.5776 14.8534 18.4278 14.9177L14.2334 16.7391Z" fill="var(--fill-0, #979EA3)"/>
</g>
</svg>
