<svg preserveAspectRatio="none" width="100%" height="100%" overflow="visible" style="display: block;" viewBox="0 0 163.958 15.9429" fill="none" xmlns="http://www.w3.org/2000/svg">
<g id="Group">
<path id="Vector" d="M163.851 2.76429L161.947 0.235714C161.84 0.0857144 161.668 6.81196e-08 161.476 6.81196e-08H154.542C154.307 6.81196e-08 154.071 0.0857144 153.879 0.214286L151.739 1.82143V0.514286C151.739 0.235715 151.503 6.81196e-08 151.225 6.81196e-08H148.614C148.336 6.81196e-08 148.101 0.235715 148.101 0.514286V11.0786C148.101 11.4 148.251 11.7 148.486 11.9143C148.507 11.9357 153.686 15.7071 153.686 15.7071C153.879 15.8571 154.093 15.9214 154.328 15.9214H161.69C161.925 15.9214 162.118 15.7286 162.118 15.4929V12.7071C162.118 12.4714 161.925 12.2786 161.69 12.2786H154.178L163.659 5.74286C163.851 5.61429 163.958 5.37857 163.958 5.14286V3.10714C163.958 2.97857 163.915 2.87143 163.851 2.76429ZM160.128 3.9L151.953 9.53572C151.867 9.6 151.739 9.53572 151.739 9.42857V3.92143C151.739 3.77143 151.867 3.66429 151.996 3.66429H160.042C160.192 3.64286 160.235 3.81429 160.128 3.9Z" fill="var(--fill-0, #979EA3)"/>
<path id="Vector_2" d="M144.997 2.76429L143.093 0.235714C142.986 0.0857144 142.815 0 142.622 0H135.688C135.453 0 135.218 0.0857143 135.025 0.214286L132.885 1.82143V0.428571C132.885 0.192857 132.692 0 132.457 0H129.654C129.418 0 129.226 0.192857 129.226 0.428571V15.4929C129.226 15.7286 129.418 15.9214 129.654 15.9214H132.457C132.692 15.9214 132.885 15.7286 132.885 15.4929V12.2357H138.856C139.091 12.2357 139.305 12.1714 139.498 12.0214L144.634 8.27143C144.912 8.05714 145.083 7.73571 145.083 7.39286V3.10714C145.104 2.97857 145.062 2.87143 144.997 2.76429ZM141.188 8.57143H133.163C133.013 8.57143 132.906 8.44286 132.906 8.31429V3.92143C132.906 3.77143 133.035 3.66429 133.163 3.66429H141.188C141.338 3.66429 141.445 3.79286 141.445 3.92143V8.31429C141.466 8.46429 141.338 8.57143 141.188 8.57143Z" fill="var(--fill-0, #979EA3)"/>
<path id="Vector_3" d="M110.886 2.76429L108.982 0.235714C108.875 0.0857144 108.703 6.81196e-08 108.511 6.81196e-08H101.363C101.128 6.81196e-08 100.914 0.0642858 100.721 0.214286L95.5852 3.96429C95.307 4.17857 95.1358 4.5 95.1358 4.84286V12.8143C95.1358 12.9429 95.1786 13.0714 95.2428 13.1571L97.1474 15.6857C97.2544 15.8357 97.4256 15.9214 97.6182 15.9214H104.766C105.001 15.9214 105.215 15.8571 105.408 15.7071L110.544 11.9571C110.822 11.7429 110.993 11.4214 110.993 11.0786V3.10714C110.993 2.97857 110.95 2.87143 110.886 2.76429ZM98.7952 12V3.92143C98.7952 3.77143 98.9236 3.66429 99.052 3.66429H107.077C107.227 3.66429 107.334 3.79286 107.334 3.92143V12C107.334 12.15 107.205 12.2571 107.077 12.2571H99.052C98.9022 12.2571 98.7952 12.15 98.7952 12Z" fill="var(--fill-0, #979EA3)"/>
<path id="Vector_4" d="M126.465 0.428572V3.23571C126.465 3.47143 126.273 3.66429 126.037 3.66429H117.905C117.756 3.66429 117.649 3.79286 117.649 3.92143V15.4929C117.649 15.7286 117.456 15.9214 117.221 15.9214H114.417C114.182 15.9214 113.989 15.7286 113.989 15.4929V0.428572C113.989 0.192857 114.182 6.81196e-08 114.417 6.81196e-08H117.221C117.456 6.81196e-08 117.649 0.192857 117.649 0.428572V1.58571L119.468 0.214286C119.66 0.0642858 119.896 6.81196e-08 120.131 6.81196e-08H126.059C126.273 6.81196e-08 126.465 0.192857 126.465 0.428572Z" fill="var(--fill-0, #979EA3)"/>
<path id="Vector_5" d="M92.2468 0.428572V15.4929C92.2468 15.7286 92.0542 15.9214 91.8188 15.9214H89.0154C88.78 15.9214 88.5874 15.7286 88.5874 15.4929V9.53572C88.5874 9.38572 88.459 9.27857 88.3306 9.27857H80.3056C80.1558 9.27857 80.0488 9.40714 80.0488 9.53572V15.4929C80.0488 15.7286 79.8562 15.9214 79.6208 15.9214H76.8174C76.582 15.9214 76.3894 15.7286 76.3894 15.4929V0.45C76.3894 0.214286 76.582 0.0214287 76.8174 0.0214287H79.6208C79.8562 0.0214287 80.0488 0.214286 80.0488 0.45V7.22143L81.8678 5.85C82.0604 5.7 82.2958 5.63572 82.5312 5.63572H88.6088V0.428572C88.6088 0.192857 88.8014 6.81196e-08 89.0368 6.81196e-08H91.8402C92.0542 6.81196e-08 92.2468 0.192857 92.2468 0.428572Z" fill="var(--fill-0, #979EA3)"/>
<path id="Vector_6" d="M73.693 6.81196e-08H58.6916C58.4562 6.81196e-08 58.2636 0.192857 58.2636 0.428572V3.27857C58.2636 3.51429 58.4562 3.70714 58.6916 3.70714H64.384V15.4929C64.384 15.7286 64.5766 15.9214 64.812 15.9214H67.6582C67.8936 15.9214 68.0862 15.7286 68.0862 15.4929V3.70714H73.693C73.9284 3.70714 74.121 3.51429 74.121 3.27857V0.428572C74.121 0.192857 73.9284 6.81196e-08 73.693 6.81196e-08Z" fill="var(--fill-0, #979EA3)"/>
<path id="Vector_7" d="M56.0594 0.428572V12.8143C56.038 12.9857 55.9738 13.1571 55.8668 13.2857L54.219 15.4714C54.005 15.75 53.684 15.9 53.3416 15.9H52.5284C52.507 15.9 52.507 15.9 52.507 15.9C52.4214 15.9 52.3358 15.8571 52.293 15.7929L43.8614 7.41429V15.5143C43.8614 15.75 43.6688 15.9429 43.4334 15.9429H40.6086C40.3946 15.9429 40.2448 15.7714 40.2448 15.5786L40.2234 0.385715C40.2234 0.171429 40.3946 0.0214288 40.5872 0.0214288H43.4334C43.6688 0.0214288 43.8614 0.214286 43.8614 0.45V2.27143L52.4 10.8214V0.45C52.4 0.214286 52.5926 0.0214288 52.828 0.0214288H55.6314C55.8668 2.43411e-07 56.0594 0.192857 56.0594 0.428572Z" fill="var(--fill-0, #979EA3)"/>
<path id="Vector_8" d="M37.5698 6.81196e-08H34.7664C34.531 6.81196e-08 34.3384 0.192857 34.3384 0.428572V7.41429C34.3384 7.45714 34.3384 7.47857 34.317 7.52143C34.317 7.54286 34.2956 7.56429 34.2956 7.56429C34.2742 7.58572 34.2742 7.58571 34.2528 7.60714C34.21 7.65 34.1458 7.69286 34.0602 7.69286H26.0352C25.971 7.69286 25.8854 7.67143 25.8426 7.60714C25.8212 7.58571 25.8212 7.58572 25.7998 7.56429C25.7998 7.54286 25.7784 7.54286 25.7784 7.52143C25.757 7.5 25.757 7.45714 25.757 7.41429V0.428572C25.757 0.192857 25.5644 6.81196e-08 25.329 6.81196e-08H22.5684C22.333 6.81196e-08 22.1404 0.192857 22.1404 0.428572V6.70714C22.1404 7.05 22.3116 7.39286 22.5898 7.58572L28.2394 11.7V15.4929C28.2394 15.7286 28.432 15.9214 28.6674 15.9214H31.4494C31.6848 15.9214 31.8774 15.7286 31.8774 15.4929V11.7L37.527 7.58572C37.8052 7.37143 37.9764 7.05 37.9764 6.70714L37.9978 0.428572C37.9978 0.192857 37.8052 6.81196e-08 37.5698 6.81196e-08Z" fill="var(--fill-0, #979EA3)"/>
<path id="Vector_9" d="M20.193 0.192857C20.0218 0.0642858 19.8078 0.0428572 19.6152 0.128571L16.876 1.54286C16.6406 1.67143 16.448 1.88571 16.3838 2.16429L14.0726 11.0357L10.7556 3.87857C10.67 3.68571 10.4774 3.57857 10.2634 3.57857H10.135C9.92104 3.57857 9.72844 3.70714 9.64284 3.87857L6.32584 11.0357L4.01464 2.16429C3.95044 1.90714 3.75784 1.67143 3.52244 1.54286L0.783238 0.128571C0.590638 0.0214286 0.376639 0.0642858 0.205439 0.192857C0.0342388 0.321429 -0.0299599 0.535714 0.0128401 0.75L3.73644 15.2786C3.82204 15.6 4.12164 15.8357 4.46404 15.8357H7.07484C7.37444 15.8357 7.63124 15.6643 7.75964 15.4071L10.1992 10.2L12.6174 15.4071C12.7458 15.6643 13.0026 15.8357 13.3022 15.8357H15.913C16.2554 15.8357 16.555 15.6 16.6406 15.2786L20.3642 0.75C20.4284 0.557143 20.3642 0.342857 20.193 0.192857Z" fill="var(--fill-0, #979EA3)"/>
</g>
</svg>
